<svg xmlns="http://www.w3.org/2000/svg" width="1000" height="1000" viewBox="0 0 1000 1000" shape-rendering="crispEdges"><rect width="1000" height="1000" fill="#eafcd6"/><g id="cell-fills"><rect x="0" y="0" width="800" height="1000" fill="#a1d08b"/><rect x="800" y="848" width="47" height="79" fill="#336856"/><rect x="894" y="774" width="106" height="80" fill="#336856"/><rect x="800" y="667" width="47" height="47" fill="#a1d08b"/><rect x="847" y="854" width="67" height="73" fill="#336856"/><rect x="867" y="927" width="47" height="73" fill="#336856"/><rect x="800" y="274" width="107" height="153" fill="#a1d08b"/><rect x="800" y="927" width="67" height="73" fill="#a1d08b"/></g><g id="anchor-glyph-field"><rect x="80" y="180" width="640" height="640" fill="#eefde4"/><text class="glyph-matrix" x="147" y="262" font-family="monospace" font-size="15" font-weight="400" fill="#071820" xml:space="preserve"><tspan x="147" dy="0" textLength="506" lengthAdjust="spacing"> o. o. o. o. o.  .o .o .o .o .o </tspan><tspan x="147" dy="15" textLength="506" lengthAdjust="spacing"> O. : x o O. : xx : .O o x : .O </tspan><tspan x="147" dy="15" textLength="506" lengthAdjust="spacing">: .O o x : .O o  o O. : x o O. :</tspan><tspan x="147" dy="15" textLength="506" lengthAdjust="spacing">o .o .o .o .o .oo. o. o. o. o. o</tspan><tspan x="147" dy="15" textLength="506" lengthAdjust="spacing">  .xO  :o  .xO    Ox.  o:  Ox.  </tspan><tspan x="147" dy="15" textLength="506" lengthAdjust="spacing">  .:xoO    .:xoOOox:.    Oox:.  </tspan><tspan x="147" dy="15" textLength="506" lengthAdjust="spacing">................................</tspan><tspan x="147" dy="15" textLength="506" lengthAdjust="spacing">x:.    Oox:.        .:xoO    .:x</tspan><tspan x="147" dy="15" textLength="506" lengthAdjust="spacing">Ox.  o:  Ox.  o::o  .xO  :o  .xO</tspan><tspan x="147" dy="15" textLength="506" lengthAdjust="spacing"> o. o. o. o. o.  .o .o .o .o .o </tspan><tspan x="147" dy="15" textLength="506" lengthAdjust="spacing"> O. : x o O. : xx : .O o x : .O </tspan><tspan x="147" dy="15" textLength="506" lengthAdjust="spacing">: .O o x : .O o  o O. : x o O. :</tspan><tspan x="147" dy="15" textLength="506" lengthAdjust="spacing">o .o .o .o .o .oo. o. o. o. o. o</tspan><tspan x="147" dy="15" textLength="506" lengthAdjust="spacing">  .xO  :o  .xO    Ox.  o:  Ox.  </tspan><tspan x="147" dy="15" textLength="506" lengthAdjust="spacing">  .:xoO    .:xoOOox:.    Oox:.  </tspan><tspan x="147" dy="15" textLength="506" lengthAdjust="spacing">................................</tspan><tspan x="147" dy="15" textLength="506" lengthAdjust="spacing">................................</tspan><tspan x="147" dy="15" textLength="506" lengthAdjust="spacing">  .:xoO    .:xoOOox:.    Oox:.  </tspan><tspan x="147" dy="15" textLength="506" lengthAdjust="spacing">  .xO  :o  .xO    Ox.  o:  Ox.  </tspan><tspan x="147" dy="15" textLength="506" lengthAdjust="spacing">o .o .o .o .o .oo. o. o. o. o. o</tspan><tspan x="147" dy="15" textLength="506" lengthAdjust="spacing">: .O o x : .O o  o O. : x o O. :</tspan><tspan x="147" dy="15" textLength="506" lengthAdjust="spacing"> O. : x o O. : xx : .O o x : .O </tspan><tspan x="147" dy="15" textLength="506" lengthAdjust="spacing"> o. o. o. o. o.  .o .o .o .o .o </tspan><tspan x="147" dy="15" textLength="506" lengthAdjust="spacing">Ox.  o:  Ox.  o::o  .xO  :o  .xO</tspan><tspan x="147" dy="15" textLength="506" lengthAdjust="spacing">x:.    Oox:.        .:xoO    .:x</tspan><tspan x="147" dy="15" textLength="506" lengthAdjust="spacing">................................</tspan><tspan x="147" dy="15" textLength="506" lengthAdjust="spacing">  .:xoO    .:xoOOox:.    Oox:.  </tspan><tspan x="147" dy="15" textLength="506" lengthAdjust="spacing">  .xO  :o  .xO    Ox.  o:  Ox.  </tspan><tspan x="147" dy="15" textLength="506" lengthAdjust="spacing">o .o .o .o .o .oo. o. o. o. o. o</tspan><tspan x="147" dy="15" textLength="506" lengthAdjust="spacing">: .O o x : .O o  o O. : x o O. :</tspan><tspan x="147" dy="15" textLength="506" lengthAdjust="spacing"> O. : x o O. : xx : .O o x : .O </tspan><tspan x="147" dy="15" textLength="506" lengthAdjust="spacing"> o. o. o. o. o.  .o .o .o .o .o </tspan></text><rect x="80" y="180" width="640" height="14" fill="#071820"/><rect x="80" y="806" width="640" height="14" fill="#071820"/><rect x="80" y="180" width="14" height="640" fill="#071820"/><rect x="706" y="180" width="14" height="640" fill="#071820"/></g><g id="grid-lines"><rect x="793" y="0" width="14" height="1000" fill="#071820"/><rect x="800" y="920" width="200" height="14" fill="#071820"/><rect x="800" y="660" width="200" height="14" fill="#071820"/><rect x="860" y="927" width="14" height="73" fill="#071820"/><rect x="840" y="667" width="14" height="260" fill="#071820"/><rect x="800" y="707" width="47" height="14" fill="#071820"/><rect x="800" y="774" width="47" height="14" fill="#071820"/><rect x="907" y="927" width="14" height="73" fill="#071820"/><rect x="847" y="847" width="153" height="14" fill="#071820"/><rect x="847" y="767" width="153" height="14" fill="#071820"/><rect x="887" y="667" width="14" height="107" fill="#071820"/><rect x="887" y="774" width="14" height="80" fill="#071820"/><rect x="800" y="841" width="47" height="14" fill="#071820"/><rect x="800" y="420" width="200" height="14" fill="#071820"/><rect x="907" y="854" width="14" height="73" fill="#071820"/><rect x="800" y="200" width="200" height="14" fill="#071820"/><rect x="880" y="427" width="14" height="240" fill="#071820"/><rect x="800" y="587" width="87" height="14" fill="#071820"/><rect x="800" y="467" width="87" height="14" fill="#071820"/><rect x="800" y="267" width="200" height="14" fill="#071820"/><rect x="920" y="207" width="14" height="67" fill="#071820"/><rect x="887" y="467" width="113" height="14" fill="#071820"/><rect x="900" y="274" width="14" height="153" fill="#071820"/><rect x="0" y="0" width="1000" height="14" fill="#071820"/><rect x="0" y="986" width="1000" height="14" fill="#071820"/><rect x="0" y="0" width="14" height="1000" fill="#071820"/><rect x="986" y="0" width="14" height="1000" fill="#071820"/></g></svg>