# Optimized from MagicaVoxel OBJ by greedy merging coplanar voxel faces
o Florin_simplified
mtllib Florin_simplified.mtl
usemtl palette

# normals
vn -1 0 0
vn 1 0 0
vn 0 0 1
vn 0 0 -1
vn 0 -1 0
vn 0 1 0

# texcoords
vt 0.146484 0.5
vt 0.314453 0.5
vt 0.318359 0.5
vt 0.650391 0.5
vt 0.876953 0.5
vt 0.912109 0.5
vt 0.916016 0.5
vt 0.951172 0.5
vt 0.955078 0.5
vt 0.990234 0.5
vt 0.994141 0.5

# verts
v -10.8 2.8 -4.6
v -10.8 2.8 -4.5
v -10.8 2.9 -4.5
v -10.8 2.9 -4.6
v -10.8 2.8 -4.1
v -10.8 2.8 -4
v -10.8 2.9 -4
v -10.8 2.9 -4.1
v -10.8 3.2 -4.5
v -10.8 3.2 -4.1
v -10.8 3.3 -4.1
v -10.8 3.3 -4.5
v -10.8 3.6 -4.5
v -10.8 3.6 -4.1
v -10.8 3.7 -4.1
v -10.8 3.7 -4.5
v -10.8 4 -4.5
v -10.8 4 -4.6
v -10.8 3 -4
v -10.8 3 -4.5
v -10.8 3 -4.1
v -10.8 4 -4
v -10.8 4 -4.1
v -10.8 3.1 -4.5
v -10.8 3.1 -4.1
v -10.8 3.4 -4.1
v -10.8 3.4 -4.5
v -10.8 3.5 -4.5
v -10.8 3.5 -4.1
v -10.8 3.8 -4.1
v -10.8 3.8 -4.5
v -10.8 3.9 -4.5
v -10.8 3.9 -4.1
v -10.6 2.2 -4.6
v -10.6 2.2 -4.5
v -10.6 2.7 -4.5
v -10.6 2.7 -4.6
v -10.6 2.2 -4.1
v -10.6 2.2 -4
v -10.6 2.7 -4
v -10.6 2.7 -4.1
v -10.6 2.3 -4.5
v -10.6 2.3 -4.1
v -10.6 2.4 -4.1
v -10.6 2.4 -4.5
v -10.6 2.5 -4.5
v -10.6 2.5 -4.1
v -10.6 2.6 -4.1
v -10.6 2.6 -4.5
v -10.6 4 -4.6
v -10.6 4 -4.5
v -10.6 4.6 -4.5
v -10.6 4.6 -4.6
v -10.6 4 -4.1
v -10.6 4 -4
v -10.6 4.6 -4
v -10.6 4.6 -4.1
v -10.6 4.1 -4.5
v -10.6 4.1 -4.1
v -10.6 4.2 -4.1
v -10.6 4.2 -4.5
v -10.6 4.3 -4.5
v -10.6 4.3 -4.1
v -10.6 4.4 -4.1
v -10.6 4.4 -4.5
v -10.6 4.5 -4.5
v -10.6 4.5 -4.1
v -10.6 2.8 -4
v -10.6 2.8 -4.6
v -10.4 1.8 -4.6
v -10.4 1.8 -4.5
v -10.4 2.1 -4.5
v -10.4 2.1 -4.6
v -10.4 1.8 -4.1
v -10.4 1.8 -4
v -10.4 2.1 -4
v -10.4 2.1 -4.1
v -10.4 1.9 -4.5
v -10.4 1.9 -4.1
v -10.4 2 -4.1
v -10.4 2 -4.5
v -10.4 4.6 -4.6
v -10.4 4.6 -4.5
v -10.4 4.9 -4.5
v -10.4 4.9 -4.6
v -10.4 4.6 -4.1
v -10.4 4.6 -4
v -10.4 4.9 -4
v -10.4 4.9 -4.1
v -10.4 4.7 -4.1
v -10.4 4.7 -4.5
v -10.4 4.8 -4.5
v -10.4 4.8 -4.1
v -10.4 2.2 -4
v -10.4 2.2 -4.6
v -10.4 5 -4
v -10.4 5 -4.6
v -10.2 1.6 -4.6
v -10.2 1.6 -4.5
v -10.2 1.7 -4.5
v -10.2 1.7 -4.6
v -10.2 1.6 -4.1
v -10.2 1.6 -4
v -10.2 1.7 -4
v -10.2 1.7 -4.1
v -10.2 5 -4.6
v -10.2 5 -4.5
v -10.2 5.2 -4.5
v -10.2 5.2 -4.6
v -10.2 5 -4.1
v -10.2 5 -4
v -10.2 5.2 -4
v -10.2 5.2 -4.1
v -10.2 5.1 -4.5
v -10.2 5.1 -4.1
v -10.2 1.8 -4
v -10.2 1.8 -4.6
v -10 1.4 -4.6
v -10 1.4 -4.5
v -10 1.5 -4.5
v -10 1.5 -4.6
v -10 1.4 -4.1
v -10 1.4 -4
v -10 1.5 -4
v -10 1.5 -4.1
v -10 5.2 -4.6
v -10 5.2 -4.5
v -10 5.4 -4.5
v -10 5.4 -4.6
v -10 5.2 -4.1
v -10 5.2 -4
v -10 5.4 -4
v -10 5.4 -4.1
v -10 5.3 -4.5
v -10 5.3 -4.1
v -10 1.6 -4
v -10 1.6 -4.6
v -9.8 1.2 -4.6
v -9.8 1.2 -4.5
v -9.8 1.3 -4.5
v -9.8 1.3 -4.6
v -9.8 1.2 -4.1
v -9.8 1.2 -4
v -9.8 1.3 -4
v -9.8 1.3 -4.1
v -9.8 5.4 -4.6
v -9.8 5.4 -4.5
v -9.8 5.5 -4.5
v -9.8 5.5 -4.6
v -9.8 5.4 -4.1
v -9.8 5.4 -4
v -9.8 5.5 -4
v -9.8 5.5 -4.1
v -9.8 1.4 -4
v -9.8 1.4 -4.6
v -9.8 5.6 -4
v -9.8 5.6 -4.6
v -9.6 1 -4.6
v -9.6 1 -4.5
v -9.6 1.1 -4.5
v -9.6 1.1 -4.6
v -9.6 1 -4.1
v -9.6 1 -4
v -9.6 1.1 -4
v -9.6 1.1 -4.1
v -9.6 5.6 -4.6
v -9.6 5.6 -4.5
v -9.6 5.8 -4.5
v -9.6 5.8 -4.6
v -9.6 5.6 -4.1
v -9.6 5.6 -4
v -9.6 5.8 -4
v -9.6 5.8 -4.1
v -9.6 5.7 -4.5
v -9.6 5.7 -4.1
v -9.6 1.2 -4
v -9.6 1.2 -4.6
v -9.4 0.8 -4.6
v -9.4 0.8 -4.5
v -9.4 1 -4.5
v -9.4 1 -4.6
v -9.4 0.8 -4.1
v -9.4 0.8 -4
v -9.4 1 -4
v -9.4 1 -4.1
v -9.4 0.9 -4.5
v -9.4 0.9 -4.1
v -9.4 5.8 -4.6
v -9.4 5.8 -4.5
v -9.4 6 -4.5
v -9.4 6 -4.6
v -9.4 5.8 -4.1
v -9.4 5.8 -4
v -9.4 6 -4
v -9.4 6 -4.1
v -9.4 5.9 -4.5
v -9.4 5.9 -4.1
v -9.2 0.6 -4.6
v -9.2 0.6 -4.5
v -9.2 0.7 -4.5
v -9.2 0.7 -4.6
v -9.2 0.6 -4.1
v -9.2 0.6 -4
v -9.2 0.7 -4
v -9.2 0.7 -4.1
v -9.2 0.8 -4
v -9.2 0.8 -4.6
v -9.2 6 -4.6
v -9.2 6 -4.5
v -9.2 6.2 -4.5
v -9.2 6.2 -4.6
v -9.2 6 -4.1
v -9.2 6 -4
v -9.2 6.2 -4
v -9.2 6.2 -4.1
v -9.2 6.1 -4.5
v -9.2 6.1 -4.1
v -8.8 0.4 -4.6
v -8.8 0.4 -4.5
v -8.8 0.6 -4.5
v -8.8 0.6 -4.6
v -8.8 0.4 -4.1
v -8.8 0.4 -4
v -8.8 0.6 -4
v -8.8 0.6 -4.1
v -8.8 0.5 -4.5
v -8.8 0.5 -4.1
v -8.8 6.3 -4.6
v -8.8 6.3 -4
v -8.8 6.4 -4
v -8.8 6.4 -4.6
v -8.8 6.2 -4.5
v -8.8 6.2 -4.1
v -8.8 6.3 -4.1
v -8.8 6.3 -4.5
v -8.8 6.2 -4.6
v -8.8 6.2 -4
v -8.2 0.2 -4.6
v -8.2 0.2 -4.5
v -8.2 0.4 -4.5
v -8.2 0.4 -4.6
v -8.2 0.2 -4.1
v -8.2 0.2 -4
v -8.2 0.4 -4
v -8.2 0.4 -4.1
v -8.2 0.3 -4.5
v -8.2 0.3 -4.1
v -8.2 6.4 -4.6
v -8.2 6.4 -4
v -8.2 6.6 -4
v -8.2 6.6 -4.6
v -7 0.2 -4.6
v -7 0.4 -4.6
v -7 0.4 -4.5
v -7 0.2 -4.5
v -7 0.3 -4.5
v -7 0.3 -4
v -7 0.2 -4
v -7 0.3 -4.1
v -7 0.4 -4.1
v -7 0.4 -4
v -7 6.5 -4.5
v -7 6.6 -4.5
v -7 6.6 -4.1
v -7 6.5 -4.1
v -7 6.4 -4.6
v -7 6.6 -4.6
v -7 6.4 -4.5
v -7 6.5 -4
v -7 6.4 -4
v -7 6.6 -4
v -6.4 0.4 -4.6
v -6.4 0.5 -4.6
v -6.4 0.5 -4
v -6.4 0.4 -4
v -6.4 0.6 -4.6
v -6.4 0.6 -4.5
v -6.4 0.5 -4.5
v -6.4 0.5 -4.1
v -6.4 0.6 -4.1
v -6.4 0.6 -4
v -6.4 6.2 -4.6
v -6.4 6.4 -4.6
v -6.4 6.4 -4.5
v -6.4 6.2 -4.5
v -6.4 6.3 -4.5
v -6.4 6.3 -4
v -6.4 6.2 -4
v -6.4 6.3 -4.1
v -6.4 6.4 -4.1
v -6.4 6.4 -4
v -6 0.6 -4.6
v -6 0.7 -4.6
v -6 0.7 -4
v -6 0.6 -4
v -6 0.8 -4.6
v -6 0.8 -4.5
v -6 0.7 -4.5
v -6 0.7 -4.1
v -6 0.8 -4.1
v -6 0.8 -4
v -6 6 -4.6
v -6 6.2 -4.6
v -6 6.2 -4.5
v -6 6 -4.5
v -6 6.1 -4.5
v -6 6.1 -4
v -6 6 -4
v -6 6.1 -4.1
v -6 6.2 -4.1
v -6 6.2 -4
v -5.8 0.8 -4.6
v -5.8 0.9 -4.6
v -5.8 0.9 -4
v -5.8 0.8 -4
v -5.8 1 -4.6
v -5.8 1 -4.5
v -5.8 0.9 -4.5
v -5.8 0.9 -4.1
v -5.8 1 -4.1
v -5.8 1 -4
v -5.8 5.8 -4.6
v -5.8 6 -4.6
v -5.8 6 -4.5
v -5.8 5.8 -4.5
v -5.8 5.9 -4.5
v -5.8 5.9 -4
v -5.8 5.8 -4
v -5.8 5.9 -4.1
v -5.8 6 -4.1
v -5.8 6 -4
v -5.6 1 -4.6
v -5.6 1.1 -4.6
v -5.6 1.1 -4
v -5.6 1 -4
v -5.6 1.2 -4.6
v -5.6 1.2 -4.5
v -5.6 1.1 -4.5
v -5.6 1.1 -4.1
v -5.6 1.2 -4.1
v -5.6 1.2 -4
v -5.6 5.6 -4.6
v -5.6 5.8 -4.6
v -5.6 5.8 -4.5
v -5.6 5.6 -4.5
v -5.6 5.7 -4.5
v -5.6 5.7 -4
v -5.6 5.6 -4
v -5.6 5.7 -4.1
v -5.6 5.8 -4.1
v -5.6 5.8 -4
v -5.4 1.2 -4.6
v -5.4 1.4 -4.6
v -5.4 1.4 -4.5
v -5.4 1.2 -4.5
v -5.4 1.3 -4.5
v -5.4 1.3 -4
v -5.4 1.2 -4
v -5.4 1.3 -4.1
v -5.4 1.4 -4.1
v -5.4 1.4 -4
v -5.4 5.4 -4.6
v -5.4 5.6 -4.6
v -5.4 5.6 -4.5
v -5.4 5.4 -4.5
v -5.4 5.5 -4.5
v -5.4 5.5 -4
v -5.4 5.4 -4
v -5.4 5.5 -4.1
v -5.4 5.6 -4.1
v -5.4 5.6 -4
v -5.2 1.4 -4.6
v -5.2 1.5 -4.6
v -5.2 1.5 -4
v -5.2 1.4 -4
v -5.2 1.6 -4.6
v -5.2 1.6 -4.5
v -5.2 1.5 -4.5
v -5.2 1.5 -4.1
v -5.2 1.6 -4.1
v -5.2 1.6 -4
v -5.2 5.2 -4.6
v -5.2 5.4 -4.6
v -5.2 5.4 -4.5
v -5.2 5.2 -4.5
v -5.2 5.3 -4.5
v -5.2 5.3 -4
v -5.2 5.2 -4
v -5.2 5.3 -4.1
v -5.2 5.4 -4.1
v -5.2 5.4 -4
v -5 1.6 -4.6
v -5 1.7 -4.6
v -5 1.7 -4
v -5 1.6 -4
v -5 5 -4.6
v -5 5.1 -4.6
v -5 5.1 -4
v -5 5 -4
v -5 1.8 -4.6
v -5 1.8 -4.5
v -5 1.7 -4.5
v -5 1.7 -4.1
v -5 1.8 -4.1
v -5 1.8 -4
v -5 5.2 -4.6
v -5 5.2 -4.5
v -5 5.1 -4.5
v -5 5.1 -4.1
v -5 5.2 -4.1
v -5 5.2 -4
v -4.8 1.8 -4.6
v -4.8 1.9 -4.6
v -4.8 1.9 -4
v -4.8 1.8 -4
v -4.8 4.6 -4.6
v -4.8 4.7 -4.6
v -4.8 4.7 -4
v -4.8 4.6 -4
v -4.8 2.2 -4.6
v -4.8 2.2 -4.5
v -4.8 1.9 -4.5
v -4.8 1.9 -4.1
v -4.8 2.2 -4.1
v -4.8 2.2 -4
v -4.8 2 -4.5
v -4.8 2.1 -4.5
v -4.8 2.1 -4.1
v -4.8 2 -4.1
v -4.8 5 -4.6
v -4.8 5 -4.5
v -4.8 4.7 -4.5
v -4.8 4.7 -4.1
v -4.8 5 -4.1
v -4.8 5 -4
v -4.8 4.8 -4.5
v -4.8 4.9 -4.5
v -4.8 4.9 -4.1
v -4.8 4.8 -4.1
v -4.6 2.2 -4.6
v -4.6 2.8 -4.6
v -4.6 2.8 -4.5
v -4.6 2.2 -4.5
v -4.6 2.3 -4.5
v -4.6 2.3 -4
v -4.6 2.2 -4
v -4.6 2.3 -4.1
v -4.6 2.8 -4.1
v -4.6 2.8 -4
v -4.6 2.4 -4.5
v -4.6 2.5 -4.5
v -4.6 2.5 -4.1
v -4.6 2.4 -4.1
v -4.6 2.6 -4.5
v -4.6 2.7 -4.5
v -4.6 2.7 -4.1
v -4.6 2.6 -4.1
v -4.6 4.2 -4.3
v -4.6 4.3 -4.3
v -4.6 4.3 -4.1
v -4.6 4.2 -4.1
v -4.6 4.3 -4.5
v -4.6 4.4 -4.5
v -4.6 4.4 -4.1
v -4.6 4.1 -4.5
v -4.6 4.2 -4.5
v -4.6 4.1 -4.1
v -4.6 4.5 -4.5
v -4.6 4.6 -4.5
v -4.6 4.6 -4.1
v -4.6 4.5 -4.1
v -4.6 4 -4.6
v -4.6 4.6 -4.6
v -4.6 4 -4.5
v -4.6 4.1 -4
v -4.6 4 -4
v -4.6 4.6 -4
v -4.4 2.8 -4.6
v -4.4 4 -4.6
v -4.4 4 -4.5
v -4.4 2.8 -4.5
v -4.4 2.9 -4.5
v -4.4 2.9 -4
v -4.4 2.8 -4
v -4.4 2.9 -4.1
v -4.4 4 -4.1
v -4.4 4 -4
v -4.4 3 -4.5
v -4.4 3.1 -4.5
v -4.4 3.1 -4.1
v -4.4 3 -4.1
v -4.4 3.2 -4.5
v -4.4 3.3 -4.5
v -4.4 3.3 -4.1
v -4.4 3.2 -4.1
v -4.4 3.4 -4.5
v -4.4 3.5 -4.5
v -4.4 3.5 -4.1
v -4.4 3.4 -4.1
v -4.4 3.6 -4.5
v -4.4 3.7 -4.5
v -4.4 3.7 -4.1
v -4.4 3.6 -4.1
v -4.4 3.8 -4.5
v -4.4 3.9 -4.5
v -4.4 3.9 -4.1
v -4.4 3.8 -4.1
v -10.7 2.8 -4
v -10.7 2.9 -4
v -10.6 2.9 -4
v -10.6 3.9 -4
v -10.7 3.9 -4
v -10.5 2.7 -4
v -10.5 2.8 -4
v -10.5 2.2 -4
v -10.4 2.7 -4
v -10.5 4.1 -4
v -10.4 4.1 -4
v -10.5 4.6 -4
v -10.3 2.1 -4
v -10.3 2.2 -4
v -10.2 4.9 -4
v -10.3 1.9 -4
v -10.2 1.9 -4
v -10.2 2.1 -4
v -10.3 4.7 -4
v -10.2 4.7 -4
v -10.3 4.9 -4
v -10.1 1.7 -4
v -10.1 1.8 -4
v -10.1 5.1 -4
v -10 5.1 -4
v -10.1 5.2 -4
v -9.8 1.5 -4
v -9.8 1.6 -4
v -9.9 1.4 -4
v -9.9 1.5 -4
v -9.9 5.3 -4
v -9.8 5.3 -4
v -9.9 5.4 -4
v -9.6 1.3 -4
v -9.6 1.4 -4
v -9.6 5.5 -4
v -9.7 1.2 -4
v -9.7 1.3 -4
v -9.4 1.1 -4
v -9.4 1.2 -4
v -9.6 2.6 -4
v -9.4 2.6 -4
v -9.4 2.8 -4
v -9.6 2.8 -4
v -9.5 3.2 -4
v -9.4 3.2 -4
v -9.4 3.4 -4
v -9.5 3.4 -4
v -9.5 5.7 -4
v -9.4 5.7 -4
v -9.5 5.8 -4
v -9.4 2.4 -4
v -9.3 2.4 -4
v -9.3 2.6 -4
v -9.4 3.5 -4
v -9.2 3.5 -4
v -9.2 3.6 -4
v -9.4 3.6 -4
v -9.3 0.9 -4
v -9.2 0.9 -4
v -9.2 1 -4
v -9.3 1 -4
v -9.3 2.5 -4
v -9.2 2.5 -4
v -9.2 2.6 -4
v -9.2 2.2 -4
v -9 2.2 -4
v -9 2.4 -4
v -9.2 2.4 -4
v -9.1 0.7 -4
v -8.8 0.7 -4
v -8.8 0.8 -4
v -9.1 0.8 -4
v -9.1 3.1 -4
v -9 3.1 -4
v -9 3.4 -4
v -9.1 3.4 -4
v -9.1 6.1 -4
v -8.8 6.1 -4
v -9.1 6.2 -4
v -9 1.6 -4
v -8.8 1.6 -4
v -8.8 1.8 -4
v -9 1.8 -4
v -9 2 -4
v -8.8 2 -4
v -8.8 2.2 -4
v -8.9 2.9 -4
v -8.8 2.9 -4
v -8.8 3 -4
v -8.9 3 -4
v -8.3 0.4 -4
v -8.3 0.6 -4
v -8.8 1.3 -4
v -8.6 1.3 -4
v -8.6 1.4 -4
v -8.8 1.4 -4
v -8.2 6.3 -4
v -8.7 1.2 -4
v -8.6 1.2 -4
v -8.7 1.3 -4
v -8.7 2.3 -4
v -8.6 2.3 -4
v -8.6 2.4 -4
v -8.7 2.4 -4
v -8.7 2.6 -4
v -8.6 2.6 -4
v -8.6 2.8 -4
v -8.7 2.8 -4
v -8.6 2.5 -4
v -8.4 2.5 -4
v -8.4 2.6 -4
v -8.6 3.8 -4
v -8.4 3.8 -4
v -8.4 4.2 -4
v -8.6 4.2 -4
v -8.5 1.1 -4
v -8 1.1 -4
v -8 1.2 -4
v -8.5 1.2 -4
v -8.5 2.1 -4
v -8 2.1 -4
v -8 2.2 -4
v -8.5 2.2 -4
v -8.5 2.4 -4
v -8.4 2.4 -4
v -8.5 2.5 -4
v -8.4 3.4 -4
v -8.2 3.4 -4
v -8.2 3.8 -4
v -8.2 4.2 -4
v -8.2 4.6 -4
v -8.4 4.6 -4
v -8.3 0.5 -4
v -8.2 0.5 -4
v -8.2 0.6 -4
v -8.3 2.6 -4
v -8.2 2.6 -4
v -8.2 2.8 -4
v -8.3 2.8 -4
v -8.2 2.5 -4
v -8 2.5 -4
v -8 2.6 -4
v -8 4.6 -4
v -8 5 -4
v -8.2 5 -4
v -8.1 1 -4
v -8 1 -4
v -8.1 1.1 -4
v -8.1 1.7 -4
v -8 1.7 -4
v -8 1.8 -4
v -8.1 1.8 -4
v -8.1 2.4 -4
v -8 2.4 -4
v -8.1 2.5 -4
v -8.1 3.1 -4
v -8 3.1 -4
v -8 3.3 -4
v -8.1 3.3 -4
v -8 1.3 -4
v -7.8 1.3 -4
v -7.8 1.4 -4
v -8 1.4 -4
v -7.8 2.6 -4
v -7.8 3 -4
v -8 3 -4
v -8 5.5 -4
v -7.8 5.5 -4
v -7.8 5.6 -4
v -8 5.6 -4
v -7.9 1.9 -4
v -7.8 1.9 -4
v -7.8 2 -4
v -7.9 2 -4
v -7.9 5.1 -4
v -7.8 5.1 -4
v -7.9 5.5 -4
v -7.4 5.6 -4
v -7.4 6 -4
v -7.8 6 -4
v -7.7 1.8 -4
v -7.4 1.8 -4
v -7.4 2 -4
v -7.7 2 -4
v -7.7 2.2 -4
v -7.4 2.2 -4
v -7.4 2.3 -4
v -7.7 2.3 -4
v -7.6 2.3 -4
v -7.6 2.4 -4
v -7.7 2.4 -4
v -7.5 2.3 -4
v -7.4 2.4 -4
v -7.5 2.4 -4
v -7.4 1.9 -4
v -7.2 1.9 -4
v -7.2 2 -4
v -7.4 5 -4
v -7.2 5 -4
v -7.2 5.6 -4
v -7.3 1.2 -4
v -7.2 1.2 -4
v -7.2 1.4 -4
v -7.3 1.4 -4
v -7.3 2.6 -4
v -7.2 2.6 -4
v -7.2 3 -4
v -7.3 3 -4
v -7.2 1.7 -4
v -7 1.7 -4
v -7 1.8 -4
v -7.2 1.8 -4
v -7.2 2.1 -4
v -6.6 2.1 -4
v -6.6 2.2 -4
v -7.2 2.2 -4
v -7.2 2.5 -4
v -7 2.5 -4
v -7 2.6 -4
v -7.2 3.1 -4
v -7 3.1 -4
v -7 3.4 -4
v -7.2 3.4 -4
v -7.2 4.6 -4
v -7 4.6 -4
v -7 5 -4
v -7.1 1 -4
v -6.9 1 -4
v -6.9 1.2 -4
v -7.1 1.2 -4
v -6.8 3.4 -4
v -6.8 3.8 -4
v -7 3.8 -4
v -7 4.2 -4
v -6.8 4.2 -4
v -6.8 4.6 -4
v -7 6.2 -4
v -6.9 0.5 -4
v -6.9 0.6 -4
v -6.9 1.1 -4
v -6.6 1.1 -4
v -6.6 1.2 -4
v -6.9 2.6 -4
v -6.8 2.6 -4
v -6.8 2.8 -4
v -6.9 2.8 -4
v -6.8 2.5 -4
v -6.6 2.5 -4
v -6.6 2.6 -4
v -6.6 3.8 -4
v -6.6 4.2 -4
v -6.7 2.4 -4
v -6.6 2.4 -4
v -6.7 2.5 -4
v -6.4 1.2 -4
v -6.4 1.4 -4
v -6.6 1.4 -4
v -6.6 2.3 -4
v -6.4 2.3 -4
v -6.4 2.4 -4
v -6.5 2.6 -4
v -6.5 2.8 -4
v -6.6 2.8 -4
v -6.5 2.7 -4
v -6.4 2.7 -4
v -6.4 2.8 -4
v -6.4 1.6 -4
v -6.2 1.6 -4
v -6.2 1.8 -4
v -6.4 1.8 -4
v -6.4 2 -4
v -6.2 2 -4
v -6.2 2.2 -4
v -6.4 2.2 -4
v -6.4 6 -4
v -6.3 0.7 -4
v -6.2 0.7 -4
v -6.2 0.8 -4
v -6.3 0.8 -4
v -6.3 2.9 -4
v -6.2 2.9 -4
v -6.2 3 -4
v -6.3 3 -4
v -6 2.2 -4
v -6 2.4 -4
v -6.2 2.4 -4
v -6.1 3.3 -4
v -6 3.3 -4
v -6 3.4 -4
v -6.1 3.4 -4
v -5.8 2.4 -4
v -5.8 2.6 -4
v -6 2.6 -4
v -6 3.5 -4
v -5.8 3.5 -4
v -5.8 3.6 -4
v -6 3.6 -4
v -6 5.8 -4
v -5.9 0.9 -4
v -5.9 1 -4
v -5.7 2.6 -4
v -5.7 2.8 -4
v -5.8 2.8 -4
v -5.8 5.6 -4
v -5.7 1.1 -4
v -5.7 1.2 -4
v -5.7 2.7 -4
v -5.6 2.7 -4
v -5.6 2.8 -4
v -5.7 3.3 -4
v -5.6 3.3 -4
v -5.6 3.4 -4
v -5.7 3.4 -4
v -5.6 1.3 -4
v -5.6 1.4 -4
v -5.6 5.4 -4
v -5.5 1.2 -4
v -5.5 1.3 -4
v -5.4 5.2 -4
v -5.3 1.5 -4
v -5.3 1.6 -4
v -5.2 5.1 -4
v -5.1 1.7 -4
v -5.1 1.8 -4
v -4.9 1.9 -4
v -4.9 2.2 -4
v -4.9 4.7 -4
v -4.9 5 -4
v -4.7 2.2 -4
v -4.7 2.8 -4
v -4.6 2.9 -4
v -4.5 2.9 -4
v -4.5 3.1 -4
v -4.6 3.1 -4
v -10.7 4 -4
v -10.4 4 -4
v -10.6 4.1 -4
v -10.4 1.9 -4
v -10.3 4.6 -4
v -10.2 2.2 -4
v -10 1.7 -4
v -10 5 -4
v -10.2 5.1 -4
v -10 1.8 -4
v -9.8 5.2 -4
v -10 5.3 -4
v -9.6 5.4 -4
v -9.5 1 -4
v -9.5 1.1 -4
v -9.6 3.2 -4
v -9.5 3.3 -4
v -9.6 3.3 -4
v -9.5 5.6 -4
v -9.4 0.9 -4
v -9.3 5.8 -4
v -9.3 6 -4
v -9.3 5.9 -4
v -9.2 5.9 -4
v -9.2 3.1 -4
v -9.2 3.4 -4
v -8.8 6 -4
v -9.2 6.1 -4
v -8.9 0.6 -4
v -8.9 0.7 -4
v -8.9 2.8 -4
v -8.8 2.8 -4
v -8.8 1.2 -4
v -8.2 6.2 -4
v -8.5 2 -4
v -8.2 2 -4
v -8.2 2.1 -4
v -8.4 2.8 -4
v -8.2 1.7 -4
v -8.2 1.8 -4
v -8.2 3 -4
v -8.2 3.1 -4
v -8.1 3.4 -4
v -8.1 1.6 -4
v -8 1.6 -4
v -7.8 1.2 -4
v -7.9 1.8 -4
v -8 2 -4
v -7.8 5 -4
v -8 5.1 -4
v -7.8 1.8 -4
v -7.7 1.9 -4
v -7.8 2.2 -4
v -7.8 2.4 -4
v -7.4 2.6 -4
v -7.3 2.7 -4
v -7.4 2.7 -4
v -7.2 1 -4
v -7.2 1.6 -4
v -7.1 1.6 -4
v -7.1 1.7 -4
v -7 3 -4
v -7.1 2 -4
v -6.7 2 -4
v -6.7 2.1 -4
v -7.1 2.1 -4
v -6.9 0.4 -4
v -7 0.5 -4
v -7 2.8 -4
v -6.8 0.4 -4
v -6.8 0.5 -4
v -6.4 2.6 -4
v -6.3 0.6 -4
v -6.4 0.7 -4
v -6.2 2.8 -4
v -6.4 2.9 -4
v -6 3 -4
v -6 3.1 -4
v -6.2 3.1 -4
v -6.2 3.2 -4
v -6 3.2 -4
v -6.2 3.3 -4
v -6.2 3.4 -4
v -6.1 3.1 -4
v -6.1 3.2 -4
v -5.9 0.8 -4
v -6 1 -4
v -5.8 1.1 -4
v -5.8 1.2 -4
v -5.8 3.2 -4
v -5.6 3.2 -4
v -5.8 3.3 -4
v -5.8 3.4 -4
v -5.4 1.5 -4
v -5.2 1.7 -4
v -5.2 5 -4
v -5 1.9 -4
v -4.9 2.1 -4
v -5 2.1 -4
v -5 4.6 -4
v -5 4.7 -4
v -5 4.8 -4
v -4.9 4.8 -4
v -4.8 2.8 -4
v -4.8 4 -4
v -4.6 3.2 -4
v -4.4 3.2 -4
v -4.5 3.2 -4
v -10.4 2.8 -4
v -10.2 2.8 -4
v -10.2 4 -4
v -10.2 4.6 -4
v -10 2.2 -4
v -10.1 2.8 -4
v -10.1 4 -4
v -10 4.6 -4
v -10.1 3.7 -4
v -9.9 3.7 -4
v -9.9 4 -4
v -9.8 1.8 -4
v -9.5 2.2 -4
v -9.5 2.3 -4
v -10 2.3 -4
v -9.7 2.3 -4
v -9.7 2.5 -4
v -10 2.5 -4
v -9.9 2.5 -4
v -9.9 2.7 -4
v -10 2.7 -4
v -10 4 -4
v -9.9 4.6 -4
v -9.8 5 -4
v -9.9 4.1 -4
v -9.7 4.1 -4
v -9.7 4.6 -4
v -9.6 1.6 -4
v -9.1 1.8 -4
v -9.1 1.9 -4
v -9.8 1.9 -4
v -9.3 1.9 -4
v -9.3 2.1 -4
v -9.8 2.1 -4
v -9.5 2.1 -4
v -9.8 2.2 -4
v -9.8 2.8 -4
v -9.8 3.2 -4
v -9.8 4.6 -4
v -8.5 4.6 -4
v -8.5 5 -4
v -9.6 5.2 -4
v -9.7 4.3 -4
v -8.5 4.3 -4
v -9.4 1.4 -4
v -9.1 1.6 -4
v -9.6 1.8 -4
v -9.6 3.6 -4
v -9 3.6 -4
v -9 3.8 -4
v -9.6 3.8 -4
v -9.6 5 -4
v -8.3 5 -4
v -8.3 5.2 -4
v -9.4 5.4 -4
v -9.4 5.6 -4
v -9.2 1.2 -4
v -8.9 1.4 -4
v -8.9 1.5 -4
v -9.4 1.5 -4
v -9.1 1.5 -4
v -9.4 1.6 -4
v -8.8 2.6 -4
v -9 2.8 -4
v -9 3 -4
v -9.4 3 -4
v -9.2 3 -4
v -9.4 5.2 -4
v -8.1 5.2 -4
v -8.1 5.4 -4
v -9.2 5.6 -4
v -9.2 5.8 -4
v -8.8 1 -4
v -8.9 1.2 -4
v -9.2 1.4 -4
v -8.8 2.4 -4
v -9.2 5.4 -4
v -8.1 5.6 -4
v -8.8 5.8 -4
v -9 3.2 -4
v -8.8 3.2 -4
v -8.8 3.4 -4
v -8.9 4.1 -4
v -8.7 4.1 -4
v -8.7 4.3 -4
v -8.9 4.3 -4
v -8.2 0.8 -4
v -8.7 1 -4
v -8.7 1.1 -4
v -8.8 1.1 -4
v -8.6 3 -4
v -8.8 5.6 -4
v -8.1 5.8 -4
v -8.2 6 -4
v -8.7 1.5 -4
v -8.5 1.5 -4
v -8.5 1.9 -4
v -8.7 1.9 -4
v -8.5 1.7 -4
v -8.3 1.7 -4
v -8.3 1.9 -4
v -8.5 4.7 -4
v -8.3 4.7 -4
v -8.4 1.2 -4
v -8.2 1.2 -4
v -8.2 1.4 -4
v -8.4 1.4 -4
v -8.3 2.3 -4
v -8.2 2.3 -4
v -8.2 2.4 -4
v -8.3 2.4 -4
v -8.3 5.1 -4
v -8.1 5.1 -4
v -7 0.6 -4
v -8.2 1.6 -4
v -8 3.8 -4
v -8 4.2 -4
v -8.2 5.8 -4
v -7.9 5.8 -4
v -7.9 6 -4
v -8.1 5.7 -4
v -7.9 5.7 -4
v -8 3.4 -4
v -7.8 3.4 -4
v -7.8 3.8 -4
v -7.8 4.2 -4
v -7.8 4.6 -4
v -7.9 0.9 -4
v -7.3 0.9 -4
v -7.3 1.1 -4
v -7.9 1.1 -4
v -7.9 2.1 -4
v -7.8 2.1 -4
v -7.9 2.2 -4
v -7.6 3 -4
v -7.6 3.4 -4
v -7.6 3.8 -4
v -7.6 4.2 -4
v -7.6 4.6 -4
v -7.6 5 -4
v -7.7 1.1 -4
v -7.5 1.1 -4
v -7.5 1.5 -4
v -7.7 1.5 -4
v -7.6 2.6 -4
v -7.4 3 -4
v -7.4 3.4 -4
v -7.4 3.8 -4
v -7.4 4.2 -4
v -7.4 4.6 -4
v -7.6 5.6 -4
v -7.4 2.1 -4
v -7.2 3.8 -4
v -7.2 4.2 -4
v -7.3 2 -4
v -7.3 2.1 -4
v -7.3 5.7 -4
v -6.4 5.7 -4
v -6.4 5.8 -4
v -7.3 5.8 -4
v -7 5.8 -4
v -7 6 -4
v -7.3 6 -4
v -7 1.4 -4
v -7 1.6 -4
v -7.1 5.1 -4
v -5.6 5.1 -4
v -5.6 5.2 -4
v -7.1 5.2 -4
v -5.8 5.2 -4
v -5.8 5.4 -4
v -7.1 5.4 -4
v -6 5.4 -4
v -6 5.6 -4
v -7.1 5.6 -4
v -6.4 5.6 -4
v -7.1 5.7 -4
v -6.4 0.8 -4
v -7 0.8 -4
v -7 1.2 -4
v -6.8 1.2 -4
v -6.8 1.4 -4
v -7 2.3 -4
v -6.8 2.3 -4
v -6.8 2.4 -4
v -7 2.4 -4
v -6.9 1.7 -4
v -6.5 1.7 -4
v -6.5 1.9 -4
v -6.9 1.9 -4
v -6.9 4.7 -4
v -5.4 4.7 -4
v -5.4 5 -4
v -6.9 5 -4
v -5.6 5 -4
v -6.9 5.1 -4
v -6.7 1.5 -4
v -6.5 1.5 -4
v -6.7 1.7 -4
v -6.7 4.3 -4
v -5.2 4.3 -4
v -5.2 4.6 -4
v -6.7 4.6 -4
v -5.4 4.6 -4
v -6.7 4.7 -4
v -6.4 3 -4
v -6.6 3 -4
v -6.5 1 -4
v -6.4 1 -4
v -6.4 1.1 -4
v -6.5 1.1 -4
v -6.5 4.1 -4
v -6.3 4.1 -4
v -6.3 4.3 -4
v -6.5 4.3 -4
v -6.4 3.2 -4
v -6.4 3.4 -4
v -6.3 1.2 -4
v -6 1.2 -4
v -6 1.5 -4
v -6.3 1.5 -4
v -6.2 3.6 -4
v -5.6 3.6 -4
v -5.6 3.8 -4
v -6.2 3.8 -4
v -6.1 1.5 -4
v -5.8 1.5 -4
v -5.8 1.9 -4
v -6.1 1.9 -4
v -6 1.4 -4
v -5.8 1.4 -4
v -5.9 1.9 -4
v -5.4 1.9 -4
v -5.4 2.1 -4
v -5.9 2.1 -4
v -5.8 1.6 -4
v -5.6 1.6 -4
v -5.6 1.9 -4
v -5.7 2.1 -4
v -5.4 2.3 -4
v -5.7 2.3 -4
v -5.4 1.6 -4
v -5.6 1.8 -4
v -5.4 1.8 -4
v -5.4 2.8 -4
v -5.4 3.2 -4
v -5.5 2.3 -4
v -5.2 2.3 -4
v -5.2 2.5 -4
v -5.5 2.5 -4
v -5.5 4.1 -4
v -5.2 4.1 -4
v -5.5 4.3 -4
v -5.2 1.8 -4
v -5.4 2.2 -4
v -5.2 2.2 -4
v -5.3 2.5 -4
v -5.2 2.7 -4
v -5.3 2.7 -4
v -5.3 3.7 -4
v -5 3.7 -4
v -5 4 -4
v -5.3 4 -4
v -5.2 4 -4
v -5.3 4.1 -4
v -5 2.2 -4
v -5.1 2.8 -4
v -5 2.8 -4
v -5.1 3.7 -4
v -10 2.8 -4
v -9.8 3.6 -4
v -9 4 -4
v -9.6 4 -4
v -8.8 3.6 -4
v -8.2 1 -4
v -8.6 3.2 -4
v -8.2 2.2 -4
v -7.8 1.6 -4
v -7.4 1.6 -4
v -7 2.2 -4
v -7 1 -4
v -6.6 3.2 -4
v -6.4 3.6 -4
v -5.6 4 -4
v -6.2 4 -4
v -5.4 3.6 -4
v -5.2 2.8 -4
v -9.6 3.4 -4
v -8.6 2.2 -4
v -8.8 2.3 -4
v -8.6 1 -4
v -8.5 1 -4
v -8.6 2 -4
v -7.4 1.2 -4
v -7.4 1.4 -4
v -7.2 2.4 -4
v -7.1 2.4 -4
v -7.1 2.5 -4
v -6.6 2 -4
v -5.6 2.6 -4
v -10 3.7 -4
v -9.8 2.7 -4
v -10 3.6 -4
v -9.8 3.7 -4
v -9.6 2.5 -4
v -9.9 2.6 -4
v -9.8 2.6 -4
v -9.8 4.1 -4
v -9.8 4 -4
v -9.6 4.1 -4
v -9.4 2.3 -4
v -9.7 2.4 -4
v -9.6 2.4 -4
v -9.6 4.3 -4
v -9.6 4.2 -4
v -8.9 4.2 -4
v -9.2 2.1 -4
v -9.4 2.2 -4
v -9 1.9 -4
v -9.3 2 -4
v -9.2 2 -4
v -8.7 1.6 -4
v -8.6 4 -4
v -8.6 4.1 -4
v -9 4.1 -4
v -9 4.2 -4
v -8.8 1.5 -4
v -8.6 1.1 -4
v -8.4 1.5 -4
v -8.7 2.2 -4
v -8.4 3.6 -4
v -8.8 3.8 -4
v -8.8 4 -4
v -8 1.9 -4
v -8.7 2 -4
v -8.6 4.3 -4
v -8.2 3.2 -4
v -8.6 3.4 -4
v -8.6 3.6 -4
v -8.4 4.3 -4
v -8.4 1.7 -4
v -8.4 4.7 -4
v -8.4 1.6 -4
v -8.4 2.2 -4
v -8.4 2.3 -4
v -8 2.8 -4
v -8.4 3 -4
v -8.4 3.2 -4
v -8.2 4.7 -4
v -8.2 1.9 -4
v -8.2 5.1 -4
v -7 0.9 -4
v -8.2 0.9 -4
v -7.9 1 -4
v -8 5.7 -4
v -7.9 1.2 -4
v -7.8 5.7 -4
v -7.7 1.2 -4
v -7.7 1.6 -4
v -7.4 1.5 -4
v -7.2 1.1 -4
v -7.5 1.2 -4
v -7.4 5.7 -4
v -7.3 1 -4
v -6.9 1.8 -4
v -6.9 2 -4
v -7.2 5.1 -4
v -6.7 1.6 -4
v -6.8 2.2 -4
v -7 4.7 -4
v -6.4 1.9 -4
v -6.3 1.4 -4
v -6.8 1.5 -4
v -6.8 1.6 -4
v -6.8 3.2 -4
v -6.5 4.2 -4
v -6.8 4.3 -4
v -6.6 1 -4
v -6.5 1.2 -4
v -6.6 3.6 -4
v -6.4 4.1 -4
v -6.6 4.1 -4
v -6.1 1.6 -4
v -6.5 1.6 -4
v -6.4 4 -4
v -6.2 4.1 -4
v -6.2 4.3 -4
v -6.1 2 -4
v -6.2 4.2 -4
v -5.5 4.2 -4
v -5.9 2 -4
v -6 2 -4
v -5.9 2.2 -4
v -5.7 2.2 -4
v -5.8 2.2 -4
v -5.7 2.4 -4
v -5.5 2.4 -4
v -5.6 2.4 -4
v -5.5 2.6 -4
v -5.6 4.1 -4
v -5.6 4.2 -4
v -5.3 2.6 -4
v -5.4 2.6 -4
v -5.3 2.8 -4
v -5.1 3.6 -4
v -5.4 3.7 -4
v -5.4 4 -4
v -5.2 3.6 -4
v -9.1 0.6 -4
v -10.7 2.9 -4.6
v -10.7 2.8 -4.6
v -10.7 3.9 -4.6
v -10.6 3.9 -4.6
v -10.6 2.9 -4.6
v -10.5 2.8 -4.6
v -10.5 2.7 -4.6
v -10.5 2.2 -4.6
v -10.4 2.7 -4.6
v -10.5 4.1 -4.6
v -10.5 4.6 -4.6
v -10.4 4.1 -4.6
v -10.3 2.2 -4.6
v -10.3 2.1 -4.6
v -10.2 4.9 -4.6
v -10.3 1.9 -4.6
v -10.2 2.1 -4.6
v -10.2 1.9 -4.6
v -10.3 4.7 -4.6
v -10.3 4.9 -4.6
v -10.2 4.7 -4.6
v -10.1 1.8 -4.6
v -10.1 1.7 -4.6
v -10.1 5.1 -4.6
v -10.1 5.2 -4.6
v -10 5.1 -4.6
v -9.8 1.6 -4.6
v -9.8 1.5 -4.6
v -9.9 1.4 -4.6
v -9.9 1.5 -4.6
v -9.9 5.3 -4.6
v -9.9 5.4 -4.6
v -9.8 5.3 -4.6
v -9.6 1.4 -4.6
v -9.6 1.3 -4.6
v -9.6 5.5 -4.6
v -9.7 1.2 -4.6
v -9.7 1.3 -4.6
v -9.4 1.2 -4.6
v -9.4 1.1 -4.6
v -9.6 2.6 -4.6
v -9.6 2.8 -4.6
v -9.4 2.8 -4.6
v -9.4 2.6 -4.6
v -9.5 3.2 -4.6
v -9.5 3.4 -4.6
v -9.4 3.4 -4.6
v -9.4 3.2 -4.6
v -9.5 5.7 -4.6
v -9.5 5.8 -4.6
v -9.4 5.7 -4.6
v -9.4 2.4 -4.6
v -9.3 2.6 -4.6
v -9.3 2.4 -4.6
v -9.4 3.5 -4.6
v -9.4 3.6 -4.6
v -9.2 3.6 -4.6
v -9.2 3.5 -4.6
v -9.3 0.9 -4.6
v -9.3 1 -4.6
v -9.2 1 -4.6
v -9.2 0.9 -4.6
v -9.3 2.5 -4.6
v -9.2 2.6 -4.6
v -9.2 2.5 -4.6
v -9.2 2.2 -4.6
v -9.2 2.4 -4.6
v -9 2.4 -4.6
v -9 2.2 -4.6
v -9.1 0.7 -4.6
v -9.1 0.8 -4.6
v -8.8 0.8 -4.6
v -8.8 0.7 -4.6
v -9.1 3.1 -4.6
v -9.1 3.4 -4.6
v -9 3.4 -4.6
v -9 3.1 -4.6
v -9.1 6.1 -4.6
v -9.1 6.2 -4.6
v -8.8 6.1 -4.6
v -9 1.6 -4.6
v -9 1.8 -4.6
v -8.8 1.8 -4.6
v -8.8 1.6 -4.6
v -9 2 -4.6
v -8.8 2.2 -4.6
v -8.8 2 -4.6
v -8.9 2.9 -4.6
v -8.9 3 -4.6
v -8.8 3 -4.6
v -8.8 2.9 -4.6
v -8.3 0.6 -4.6
v -8.3 0.4 -4.6
v -8.8 1.3 -4.6
v -8.8 1.4 -4.6
v -8.6 1.4 -4.6
v -8.6 1.3 -4.6
v -8.2 6.3 -4.6
v -8.7 1.2 -4.6
v -8.7 1.3 -4.6
v -8.6 1.2 -4.6
v -8.7 2.3 -4.6
v -8.7 2.4 -4.6
v -8.6 2.4 -4.6
v -8.6 2.3 -4.6
v -8.7 2.6 -4.6
v -8.7 2.8 -4.6
v -8.6 2.8 -4.6
v -8.6 2.6 -4.6
v -8.6 2.5 -4.6
v -8.4 2.6 -4.6
v -8.4 2.5 -4.6
v -8.6 3.8 -4.6
v -8.6 4.2 -4.6
v -8.4 4.2 -4.6
v -8.4 3.8 -4.6
v -8.5 1.1 -4.6
v -8.5 1.2 -4.6
v -8 1.2 -4.6
v -8 1.1 -4.6
v -8.5 2.1 -4.6
v -8.5 2.2 -4.6
v -8 2.2 -4.6
v -8 2.1 -4.6
v -8.5 2.4 -4.6
v -8.5 2.5 -4.6
v -8.4 2.4 -4.6
v -8.4 3.4 -4.6
v -8.2 3.8 -4.6
v -8.2 3.4 -4.6
v -8.4 4.6 -4.6
v -8.2 4.6 -4.6
v -8.2 4.2 -4.6
v -8.3 0.5 -4.6
v -8.2 0.6 -4.6
v -8.2 0.5 -4.6
v -8.3 2.6 -4.6
v -8.3 2.8 -4.6
v -8.2 2.8 -4.6
v -8.2 2.6 -4.6
v -8.2 2.5 -4.6
v -8 2.6 -4.6
v -8 2.5 -4.6
v -8.2 5 -4.6
v -8 5 -4.6
v -8 4.6 -4.6
v -8.1 1 -4.6
v -8.1 1.1 -4.6
v -8 1 -4.6
v -8.1 1.7 -4.6
v -8.1 1.8 -4.6
v -8 1.8 -4.6
v -8 1.7 -4.6
v -8.1 2.4 -4.6
v -8.1 2.5 -4.6
v -8 2.4 -4.6
v -8.1 3.1 -4.6
v -8.1 3.3 -4.6
v -8 3.3 -4.6
v -8 3.1 -4.6
v -8 1.3 -4.6
v -8 1.4 -4.6
v -7.8 1.4 -4.6
v -7.8 1.3 -4.6
v -8 3 -4.6
v -7.8 3 -4.6
v -7.8 2.6 -4.6
v -8 5.5 -4.6
v -8 5.6 -4.6
v -7.8 5.6 -4.6
v -7.8 5.5 -4.6
v -7.9 1.9 -4.6
v -7.9 2 -4.6
v -7.8 2 -4.6
v -7.8 1.9 -4.6
v -7.9 5.1 -4.6
v -7.9 5.5 -4.6
v -7.8 5.1 -4.6
v -7.8 6 -4.6
v -7.4 6 -4.6
v -7.4 5.6 -4.6
v -7.7 1.8 -4.6
v -7.7 2 -4.6
v -7.4 2 -4.6
v -7.4 1.8 -4.6
v -7.7 2.2 -4.6
v -7.7 2.3 -4.6
v -7.4 2.3 -4.6
v -7.4 2.2 -4.6
v -7.7 2.4 -4.6
v -7.6 2.4 -4.6
v -7.6 2.3 -4.6
v -7.5 2.3 -4.6
v -7.5 2.4 -4.6
v -7.4 2.4 -4.6
v -7.4 1.9 -4.6
v -7.2 2 -4.6
v -7.2 1.9 -4.6
v -7.4 5 -4.6
v -7.2 5.6 -4.6
v -7.2 5 -4.6
v -7.3 1.2 -4.6
v -7.3 1.4 -4.6
v -7.2 1.4 -4.6
v -7.2 1.2 -4.6
v -7.3 2.6 -4.6
v -7.3 3 -4.6
v -7.2 3 -4.6
v -7.2 2.6 -4.6
v -7.2 1.7 -4.6
v -7.2 1.8 -4.6
v -7 1.8 -4.6
v -7 1.7 -4.6
v -7.2 2.1 -4.6
v -7.2 2.2 -4.6
v -6.6 2.2 -4.6
v -6.6 2.1 -4.6
v -7.2 2.5 -4.6
v -7 2.6 -4.6
v -7 2.5 -4.6
v -7.2 3.1 -4.6
v -7.2 3.4 -4.6
v -7 3.4 -4.6
v -7 3.1 -4.6
v -7.2 4.6 -4.6
v -7 5 -4.6
v -7 4.6 -4.6
v -7.1 1 -4.6
v -7.1 1.2 -4.6
v -6.9 1.2 -4.6
v -6.9 1 -4.6
v -7 3.8 -4.6
v -6.8 3.8 -4.6
v -6.8 3.4 -4.6
v -7 4.2 -4.6
v -6.8 4.6 -4.6
v -6.8 4.2 -4.6
v -7 6.2 -4.6
v -6.9 0.5 -4.6
v -6.9 0.6 -4.6
v -6.9 1.1 -4.6
v -6.6 1.2 -4.6
v -6.6 1.1 -4.6
v -6.9 2.6 -4.6
v -6.9 2.8 -4.6
v -6.8 2.8 -4.6
v -6.8 2.6 -4.6
v -6.8 2.5 -4.6
v -6.6 2.6 -4.6
v -6.6 2.5 -4.6
v -6.6 4.2 -4.6
v -6.6 3.8 -4.6
v -6.7 2.4 -4.6
v -6.7 2.5 -4.6
v -6.6 2.4 -4.6
v -6.6 1.4 -4.6
v -6.4 1.4 -4.6
v -6.4 1.2 -4.6
v -6.6 2.3 -4.6
v -6.4 2.4 -4.6
v -6.4 2.3 -4.6
v -6.6 2.8 -4.6
v -6.5 2.8 -4.6
v -6.5 2.6 -4.6
v -6.5 2.7 -4.6
v -6.4 2.8 -4.6
v -6.4 2.7 -4.6
v -6.4 1.6 -4.6
v -6.4 1.8 -4.6
v -6.2 1.8 -4.6
v -6.2 1.6 -4.6
v -6.4 2 -4.6
v -6.4 2.2 -4.6
v -6.2 2.2 -4.6
v -6.2 2 -4.6
v -6.4 6 -4.6
v -6.3 0.7 -4.6
v -6.3 0.8 -4.6
v -6.2 0.8 -4.6
v -6.2 0.7 -4.6
v -6.3 2.9 -4.6
v -6.3 3 -4.6
v -6.2 3 -4.6
v -6.2 2.9 -4.6
v -6.2 2.4 -4.6
v -6 2.4 -4.6
v -6 2.2 -4.6
v -6.1 3.3 -4.6
v -6.1 3.4 -4.6
v -6 3.4 -4.6
v -6 3.3 -4.6
v -6 2.6 -4.6
v -5.8 2.6 -4.6
v -5.8 2.4 -4.6
v -6 3.5 -4.6
v -6 3.6 -4.6
v -5.8 3.6 -4.6
v -5.8 3.5 -4.6
v -6 5.8 -4.6
v -5.9 0.9 -4.6
v -5.9 1 -4.6
v -5.8 2.8 -4.6
v -5.7 2.8 -4.6
v -5.7 2.6 -4.6
v -5.8 5.6 -4.6
v -5.7 1.1 -4.6
v -5.7 1.2 -4.6
v -5.7 2.7 -4.6
v -5.6 2.8 -4.6
v -5.6 2.7 -4.6
v -5.7 3.3 -4.6
v -5.7 3.4 -4.6
v -5.6 3.4 -4.6
v -5.6 3.3 -4.6
v -5.6 1.3 -4.6
v -5.6 1.4 -4.6
v -5.4 1.3 -4.6
v -5.6 5.4 -4.6
v -5.5 1.2 -4.6
v -5.5 1.3 -4.6
v -5.4 5.2 -4.6
v -5.3 1.5 -4.6
v -5.3 1.6 -4.6
v -5.2 5.1 -4.6
v -5.1 1.7 -4.6
v -5.1 1.8 -4.6
v -4.9 1.9 -4.6
v -4.9 2.2 -4.6
v -4.9 4.7 -4.6
v -4.9 5 -4.6
v -4.7 2.2 -4.6
v -4.7 2.8 -4.6
v -4.6 2.9 -4.6
v -4.6 3.1 -4.6
v -4.5 3.1 -4.6
v -4.5 2.9 -4.6
v -10.7 4 -4.6
v -10.6 4.1 -4.6
v -10.4 4 -4.6
v -10.4 1.9 -4.6
v -10.3 4.6 -4.6
v -10.2 2.2 -4.6
v -10 1.7 -4.6
v -10.2 5.1 -4.6
v -10 5 -4.6
v -10 1.8 -4.6
v -10 5.3 -4.6
v -9.8 5.2 -4.6
v -9.6 5.4 -4.6
v -9.5 1.1 -4.6
v -9.5 1 -4.6
v -9.6 3.2 -4.6
v -9.6 3.3 -4.6
v -9.5 3.3 -4.6
v -9.5 5.6 -4.6
v -9.4 0.9 -4.6
v -9.3 6 -4.6
v -9.3 5.8 -4.6
v -9.3 5.9 -4.6
v -9.2 5.9 -4.6
v -9.2 3.1 -4.6
v -9.2 3.4 -4.6
v -9.2 6.1 -4.6
v -8.8 6 -4.6
v -8.9 0.6 -4.6
v -8.9 0.7 -4.6
v -8.9 2.8 -4.6
v -8.8 2.8 -4.6
v -8.8 1.2 -4.6
v -8.2 6.2 -4.6
v -8.5 2 -4.6
v -8.2 2.1 -4.6
v -8.2 2 -4.6
v -8.4 2.8 -4.6
v -8.2 1.7 -4.6
v -8.2 1.8 -4.6
v -8.2 3 -4.6
v -8.2 3.1 -4.6
v -8.1 3.4 -4.6
v -8.1 1.6 -4.6
v -8 1.6 -4.6
v -7.8 1.2 -4.6
v -8 2 -4.6
v -7.9 1.8 -4.6
v -8 5.1 -4.6
v -7.8 5 -4.6
v -7.8 1.8 -4.6
v -7.7 1.9 -4.6
v -7.8 2.2 -4.6
v -7.8 2.4 -4.6
v -7.4 2.6 -4.6
v -7.4 2.7 -4.6
v -7.3 2.7 -4.6
v -7.2 1 -4.6
v -7.2 1.6 -4.6
v -7.1 1.7 -4.6
v -7.1 1.6 -4.6
v -7 3 -4.6
v -7.1 2 -4.6
v -7.1 2.1 -4.6
v -6.7 2.1 -4.6
v -6.7 2 -4.6
v -7 0.5 -4.6
v -6.9 0.4 -4.6
v -7 2.8 -4.6
v -6.8 0.4 -4.6
v -6.8 0.5 -4.6
v -6.4 2.6 -4.6
v -6.4 0.7 -4.6
v -6.3 0.6 -4.6
v -6.4 2.9 -4.6
v -6.2 2.8 -4.6
v -6.2 3.1 -4.6
v -6 3.1 -4.6
v -6 3 -4.6
v -6.2 3.2 -4.6
v -6.2 3.3 -4.6
v -6 3.2 -4.6
v -6.2 3.4 -4.6
v -6.1 3.1 -4.6
v -6.1 3.2 -4.6
v -6 1 -4.6
v -5.9 0.8 -4.6
v -5.8 1.1 -4.6
v -5.8 1.2 -4.6
v -5.8 3.2 -4.6
v -5.8 3.3 -4.6
v -5.6 3.2 -4.6
v -5.8 3.4 -4.6
v -5.4 1.5 -4.6
v -5.2 1.7 -4.6
v -5.2 5 -4.6
v -5 1.9 -4.6
v -5 2.1 -4.6
v -4.9 2.1 -4.6
v -5 4.6 -4.6
v -5 4.7 -4.6
v -5 4.8 -4.6
v -4.9 4.8 -4.6
v -4.8 2.8 -4.6
v -4.8 4 -4.6
v -4.4 2.9 -4.6
v -4.6 3.2 -4.6
v -4.4 3.2 -4.6
v -4.5 3.2 -4.6
v -10.4 2.8 -4.6
v -10.2 2.8 -4.6
v -10.2 4.6 -4.6
v -10.2 4 -4.6
v -10 2.2 -4.6
v -10.1 4 -4.6
v -10.1 2.8 -4.6
v -10 4.6 -4.6
v -10.1 3.7 -4.6
v -9.9 4 -4.6
v -9.9 3.7 -4.6
v -9.8 1.8 -4.6
v -10 2.3 -4.6
v -9.5 2.3 -4.6
v -9.5 2.2 -4.6
v -10 2.5 -4.6
v -9.7 2.5 -4.6
v -9.7 2.3 -4.6
v -10 2.7 -4.6
v -9.9 2.7 -4.6
v -9.9 2.5 -4.6
v -10 4 -4.6
v -9.9 4.6 -4.6
v -9.8 5 -4.6
v -9.9 4.1 -4.6
v -9.7 4.6 -4.6
v -9.7 4.1 -4.6
v -9.6 1.6 -4.6
v -9.8 1.9 -4.6
v -9.1 1.9 -4.6
v -9.1 1.8 -4.6
v -9.8 2.1 -4.6
v -9.3 2.1 -4.6
v -9.3 1.9 -4.6
v -9.8 2.2 -4.6
v -9.5 2.1 -4.6
v -9.8 2.8 -4.6
v -9.8 3.2 -4.6
v -9.8 4.6 -4.6
v -8.5 5 -4.6
v -8.5 4.6 -4.6
v -9.6 5.2 -4.6
v -9.7 4.3 -4.6
v -8.5 4.3 -4.6
v -9.4 1.4 -4.6
v -9.6 1.8 -4.6
v -9.1 1.6 -4.6
v -9.6 3.6 -4.6
v -9.6 3.8 -4.6
v -9 3.8 -4.6
v -9 3.6 -4.6
v -9.6 5 -4.6
v -8.3 5.2 -4.6
v -8.3 5 -4.6
v -9.4 5.6 -4.6
v -9.4 5.4 -4.6
v -9.2 1.2 -4.6
v -9.4 1.5 -4.6
v -8.9 1.5 -4.6
v -8.9 1.4 -4.6
v -9.4 1.6 -4.6
v -9.1 1.5 -4.6
v -8.8 2.6 -4.6
v -9.4 3 -4.6
v -9 3 -4.6
v -9 2.8 -4.6
v -9.2 3 -4.6
v -9.4 5.2 -4.6
v -8.1 5.4 -4.6
v -8.1 5.2 -4.6
v -9.2 5.8 -4.6
v -9.2 5.6 -4.6
v -8.8 1 -4.6
v -9.2 1.4 -4.6
v -8.9 1.2 -4.6
v -8.8 2.4 -4.6
v -9.2 5.4 -4.6
v -8.1 5.6 -4.6
v -8.8 5.8 -4.6
v -9 3.2 -4.6
v -8.8 3.4 -4.6
v -8.8 3.2 -4.6
v -8.9 4.1 -4.6
v -8.9 4.3 -4.6
v -8.7 4.3 -4.6
v -8.7 4.1 -4.6
v -8.2 0.8 -4.6
v -8.8 1.1 -4.6
v -8.7 1.1 -4.6
v -8.7 1 -4.6
v -8.6 3 -4.6
v -8.8 5.6 -4.6
v -8.1 5.8 -4.6
v -8.2 6 -4.6
v -8.7 1.5 -4.6
v -8.7 1.9 -4.6
v -8.5 1.9 -4.6
v -8.5 1.5 -4.6
v -8.5 1.7 -4.6
v -8.3 1.9 -4.6
v -8.3 1.7 -4.6
v -8.5 4.7 -4.6
v -8.3 4.7 -4.6
v -8.4 1.2 -4.6
v -8.4 1.4 -4.6
v -8.2 1.4 -4.6
v -8.2 1.2 -4.6
v -8.3 2.3 -4.6
v -8.3 2.4 -4.6
v -8.2 2.4 -4.6
v -8.2 2.3 -4.6
v -8.3 5.1 -4.6
v -8.1 5.1 -4.6
v -7 0.6 -4.6
v -8.2 1.6 -4.6
v -8 4.2 -4.6
v -8 3.8 -4.6
v -8.2 5.8 -4.6
v -7.9 6 -4.6
v -7.9 5.8 -4.6
v -8.1 5.7 -4.6
v -7.9 5.7 -4.6
v -8 3.4 -4.6
v -7.8 3.8 -4.6
v -7.8 3.4 -4.6
v -7.8 4.6 -4.6
v -7.8 4.2 -4.6
v -7.9 0.9 -4.6
v -7.9 1.1 -4.6
v -7.3 1.1 -4.6
v -7.3 0.9 -4.6
v -7.9 2.1 -4.6
v -7.9 2.2 -4.6
v -7.8 2.1 -4.6
v -7.6 3.4 -4.6
v -7.6 3 -4.6
v -7.6 4.2 -4.6
v -7.6 3.8 -4.6
v -7.6 5 -4.6
v -7.6 4.6 -4.6
v -7.7 1.1 -4.6
v -7.7 1.5 -4.6
v -7.5 1.5 -4.6
v -7.5 1.1 -4.6
v -7.6 2.6 -4.6
v -7.4 3 -4.6
v -7.4 3.8 -4.6
v -7.4 3.4 -4.6
v -7.4 4.6 -4.6
v -7.4 4.2 -4.6
v -7.6 5.6 -4.6
v -7.4 2.1 -4.6
v -7.2 4.2 -4.6
v -7.2 3.8 -4.6
v -7.3 2 -4.6
v -7.3 2.1 -4.6
v -7.3 5.7 -4.6
v -7.3 5.8 -4.6
v -6.4 5.8 -4.6
v -6.4 5.7 -4.6
v -7.3 6 -4.6
v -7 6 -4.6
v -7 5.8 -4.6
v -7 1.6 -4.6
v -7 1.4 -4.6
v -7.1 5.1 -4.6
v -7.1 5.2 -4.6
v -5.6 5.2 -4.6
v -5.6 5.1 -4.6
v -7.1 5.4 -4.6
v -5.8 5.4 -4.6
v -5.8 5.2 -4.6
v -7.1 5.6 -4.6
v -6 5.6 -4.6
v -6 5.4 -4.6
v -7.1 5.7 -4.6
v -6.4 5.6 -4.6
v -7 0.8 -4.6
v -6.4 0.8 -4.6
v -7 1.2 -4.6
v -6.8 1.4 -4.6
v -6.8 1.2 -4.6
v -7 2.3 -4.6
v -7 2.4 -4.6
v -6.8 2.4 -4.6
v -6.8 2.3 -4.6
v -6.9 1.7 -4.6
v -6.9 1.9 -4.6
v -6.5 1.9 -4.6
v -6.5 1.7 -4.6
v -6.9 4.7 -4.6
v -6.9 5 -4.6
v -5.4 5 -4.6
v -5.4 4.7 -4.6
v -6.9 5.1 -4.6
v -5.6 5 -4.6
v -6.7 1.5 -4.6
v -6.7 1.7 -4.6
v -6.5 1.5 -4.6
v -6.7 4.3 -4.6
v -6.7 4.6 -4.6
v -5.2 4.6 -4.6
v -5.2 4.3 -4.6
v -6.7 4.7 -4.6
v -5.4 4.6 -4.6
v -6.6 3 -4.6
v -6.4 3 -4.6
v -6.5 1 -4.6
v -6.5 1.1 -4.6
v -6.4 1.1 -4.6
v -6.4 1 -4.6
v -6.5 4.1 -4.6
v -6.5 4.3 -4.6
v -6.3 4.3 -4.6
v -6.3 4.1 -4.6
v -6.4 3.2 -4.6
v -6.4 3.4 -4.6
v -6.3 1.2 -4.6
v -6.3 1.5 -4.6
v -6 1.5 -4.6
v -6 1.2 -4.6
v -6.2 3.6 -4.6
v -6.2 3.8 -4.6
v -5.6 3.8 -4.6
v -5.6 3.6 -4.6
v -6.1 1.5 -4.6
v -6.1 1.9 -4.6
v -5.8 1.9 -4.6
v -5.8 1.5 -4.6
v -6 1.4 -4.6
v -5.8 1.4 -4.6
v -5.9 1.9 -4.6
v -5.9 2.1 -4.6
v -5.4 2.1 -4.6
v -5.4 1.9 -4.6
v -5.8 1.6 -4.6
v -5.6 1.9 -4.6
v -5.6 1.6 -4.6
v -5.7 2.1 -4.6
v -5.7 2.3 -4.6
v -5.4 2.3 -4.6
v -5.4 1.6 -4.6
v -5.6 1.8 -4.6
v -5.4 1.8 -4.6
v -5.4 3.2 -4.6
v -5.4 2.8 -4.6
v -5.5 2.3 -4.6
v -5.5 2.5 -4.6
v -5.2 2.5 -4.6
v -5.2 2.3 -4.6
v -5.5 4.1 -4.6
v -5.5 4.3 -4.6
v -5.2 4.1 -4.6
v -5.2 1.8 -4.6
v -5.4 2.2 -4.6
v -5.2 2.2 -4.6
v -5.3 2.5 -4.6
v -5.3 2.7 -4.6
v -5.2 2.7 -4.6
v -5.3 3.7 -4.6
v -5.3 4 -4.6
v -5 4 -4.6
v -5 3.7 -4.6
v -5.3 4.1 -4.6
v -5.2 4 -4.6
v -5 2.2 -4.6
v -5.1 2.8 -4.6
v -5.1 3.7 -4.6
v -5 2.8 -4.6
v -10 2.8 -4.6
v -9.8 3.6 -4.6
v -9.6 4 -4.6
v -9 4 -4.6
v -8.8 3.6 -4.6
v -8.2 1 -4.6
v -8.6 3.2 -4.6
v -8.2 2.2 -4.6
v -7.8 1.6 -4.6
v -7.4 1.6 -4.6
v -7 2.2 -4.6
v -7 1 -4.6
v -6.6 3.2 -4.6
v -6.4 3.6 -4.6
v -6.2 4 -4.6
v -5.6 4 -4.6
v -5.4 3.6 -4.6
v -5.2 2.8 -4.6
v -9.6 3.4 -4.6
v -8.8 2.3 -4.6
v -8.6 2.2 -4.6
v -8.6 1 -4.6
v -8.5 1 -4.6
v -8.6 2 -4.6
v -7.4 1.2 -4.6
v -7.4 1.4 -4.6
v -7.2 2.4 -4.6
v -7.1 2.5 -4.6
v -7.1 2.4 -4.6
v -6.6 2 -4.6
v -5.6 2.6 -4.6
v -10 3.7 -4.6
v -9.8 2.7 -4.6
v -10 3.6 -4.6
v -9.8 3.7 -4.6
v -9.9 2.6 -4.6
v -9.6 2.5 -4.6
v -9.8 2.6 -4.6
v -9.8 4.1 -4.6
v -9.8 4 -4.6
v -9.6 4.1 -4.6
v -9.7 2.4 -4.6
v -9.4 2.3 -4.6
v -9.6 2.4 -4.6
v -9.6 4.3 -4.6
v -9.6 4.2 -4.6
v -8.9 4.2 -4.6
v -9.2 2.1 -4.6
v -9.4 2.2 -4.6
v -9.3 2 -4.6
v -9 1.9 -4.6
v -9.2 2 -4.6
v -8.7 1.6 -4.6
v -9 4.1 -4.6
v -8.6 4.1 -4.6
v -8.6 4 -4.6
v -9 4.2 -4.6
v -8.8 1.5 -4.6
v -8.6 1.1 -4.6
v -8.4 1.5 -4.6
v -8.7 2.2 -4.6
v -8.8 3.8 -4.6
v -8.4 3.6 -4.6
v -8.8 4 -4.6
v -8.7 2 -4.6
v -8 1.9 -4.6
v -8.6 4.3 -4.6
v -8.6 3.4 -4.6
v -8.2 3.2 -4.6
v -8.6 3.6 -4.6
v -8.4 4.3 -4.6
v -8.4 1.7 -4.6
v -8.4 4.7 -4.6
v -8.4 1.6 -4.6
v -8.4 2.2 -4.6
v -8.4 2.3 -4.6
v -8.4 3 -4.6
v -8 2.8 -4.6
v -8.4 3.2 -4.6
v -8.2 4.7 -4.6
v -8.2 1.9 -4.6
v -8.2 5.1 -4.6
v -8.2 0.9 -4.6
v -7 0.9 -4.6
v -7.9 1 -4.6
v -8 5.7 -4.6
v -7.9 1.2 -4.6
v -7.8 5.7 -4.6
v -7.7 1.2 -4.6
v -7.7 1.6 -4.6
v -7.4 1.5 -4.6
v -7.5 1.2 -4.6
v -7.2 1.1 -4.6
v -7.4 5.7 -4.6
v -7.3 1 -4.6
v -6.9 2 -4.6
v -6.9 1.8 -4.6
v -7.2 5.1 -4.6
v -6.7 1.6 -4.6
v -6.8 2.2 -4.6
v -7 4.7 -4.6
v -6.4 1.9 -4.6
v -6.8 1.5 -4.6
v -6.3 1.4 -4.6
v -6.8 1.6 -4.6
v -6.8 3.2 -4.6
v -6.8 4.3 -4.6
v -6.5 4.2 -4.6
v -6.6 1 -4.6
v -6.5 1.2 -4.6
v -6.6 3.6 -4.6
v -6.6 4.1 -4.6
v -6.4 4.1 -4.6
v -6.5 1.6 -4.6
v -6.1 1.6 -4.6
v -6.4 4 -4.6
v -6.2 4.1 -4.6
v -6.2 4.3 -4.6
v -6.1 2 -4.6
v -6.2 4.2 -4.6
v -5.5 4.2 -4.6
v -5.9 2 -4.6
v -6 2 -4.6
v -5.9 2.2 -4.6
v -5.7 2.2 -4.6
v -5.8 2.2 -4.6
v -5.7 2.4 -4.6
v -5.5 2.4 -4.6
v -5.6 2.4 -4.6
v -5.5 2.6 -4.6
v -5.6 4.1 -4.6
v -5.6 4.2 -4.6
v -5.3 2.6 -4.6
v -5.4 2.6 -4.6
v -5.3 2.8 -4.6
v -5.4 3.7 -4.6
v -5.1 3.6 -4.6
v -5.4 4 -4.6
v -5.2 3.6 -4.6
v -9.1 0.6 -4.6
v -7 0.2 -4.1
v -8.1 0.2 -4.5
v -8 0.2 -4.5
v -8 0.2 -4.1
v -8.1 0.2 -4.1
v -7.9 0.2 -4.5
v -7.8 0.2 -4.5
v -7.8 0.2 -4.1
v -7.9 0.2 -4.1
v -7.7 0.2 -4.5
v -7.6 0.2 -4.5
v -7.6 0.2 -4.1
v -7.7 0.2 -4.1
v -7.5 0.2 -4.5
v -7.4 0.2 -4.5
v -7.4 0.2 -4.1
v -7.5 0.2 -4.1
v -7.3 0.2 -4.5
v -7.2 0.2 -4.5
v -7.2 0.2 -4.1
v -7.3 0.2 -4.1
v -7.1 0.2 -4.5
v -7.1 0.2 -4.1
v -8.3 0.4 -4.5
v -8.3 0.4 -4.1
v -8.7 0.4 -4.5
v -8.6 0.4 -4.5
v -8.6 0.4 -4.1
v -8.7 0.4 -4.1
v -8.5 0.4 -4.5
v -8.4 0.4 -4.5
v -8.4 0.4 -4.1
v -8.5 0.4 -4.1
v -6.9 0.4 -4.5
v -6.9 0.4 -4.1
v -6.4 0.4 -4.5
v -6.8 0.4 -4.5
v -6.8 0.4 -4.1
v -6.4 0.4 -4.1
v -6.7 0.4 -4.5
v -6.6 0.4 -4.5
v -6.6 0.4 -4.1
v -6.7 0.4 -4.1
v -6.5 0.4 -4.5
v -6.5 0.4 -4.1
v -9.1 0.6 -4.5
v -9.1 0.6 -4.1
v -8.9 0.6 -4.5
v -9 0.6 -4.5
v -9 0.6 -4
v -9 0.6 -4.1
v -8.9 0.6 -4.1
v -6 0.6 -4.5
v -6.3 0.6 -4.5
v -6.2 0.6 -4.5
v -6.2 0.6 -4
v -6.2 0.6 -4.1
v -6 0.6 -4.1
v -6.1 0.6 -4.5
v -6.1 0.6 -4.1
v -6.3 0.6 -4.1
v -9.2 0.8 -4.5
v -9.2 0.8 -4.1
v -9.3 0.8 -4.5
v -9.3 0.8 -4.1
v -5.9 0.8 -4.5
v -5.9 0.8 -4.1
v -9.5 1 -4.5
v -9.5 1 -4.1
v -5.6 1 -4.5
v -5.6 1 -4.1
v -5.7 1 -4.5
v -5.7 1 -4.1
v -9.7 1.2 -4.5
v -9.7 1.2 -4.1
v -5.5 1.2 -4.5
v -5.5 1.2 -4.1
v -9.9 1.4 -4.5
v -9.9 1.4 -4.1
v -5.2 1.4 -4.5
v -5.2 1.4 -4.1
v -5.3 1.4 -4.5
v -5.3 1.4 -4.1
v -10 1.6 -4.5
v -10 1.6 -4.1
v -10.1 1.6 -4.5
v -10.1 1.6 -4.1
v -5 1.6 -4.5
v -5 1.6 -4.1
v -5.1 1.6 -4.5
v -5.1 1.6 -4.1
v -10.2 1.8 -4.5
v -10.2 1.8 -4.1
v -10.3 1.8 -4.5
v -10.3 1.8 -4.1
v -4.8 1.8 -4.5
v -4.8 1.8 -4.1
v -4.9 1.8 -4.5
v -4.9 1.8 -4.1
v -10.5 2.2 -4.5
v -10.5 2.2 -4.1
v -4.7 2.2 -4.5
v -4.7 2.2 -4.1
v -10.7 2.8 -4.5
v -10.7 2.8 -4.1
v -4.4 2.8 -4.1
v -4.5 2.8 -4.5
v -4.5 2.8 -4.1
v -4.5 4 -4
v -4.5 4 -4.5
v -4.5 4 -4.1
v -4.8 4.6 -4.5
v -4.7 4.6 -4
v -4.7 4.6 -4.5
v -4.7 4.6 -4.1
v -10.5 4.6 -4.5
v -10.5 4.6 -4.1
v -10.4 5 -4.5
v -10.3 5 -4
v -10.3 5 -4.5
v -10.3 5 -4.1
v -4.9 5 -4.5
v -4.9 5 -4.1
v -5.1 5.2 -4
v -5.1 5.2 -4.5
v -5.1 5.2 -4.1
v -9.9 5.4 -4.5
v -9.9 5.4 -4.1
v -5.3 5.4 -4
v -5.3 5.4 -4.5
v -5.3 5.4 -4.1
v -5.5 5.6 -4
v -5.5 5.6 -4.5
v -5.5 5.6 -4.1
v -9.5 5.8 -4.5
v -9.5 5.8 -4.1
v -5.7 5.8 -4
v -5.7 5.8 -4.5
v -5.7 5.8 -4.1
v -5.9 6 -4
v -5.9 6 -4.5
v -5.9 6 -4.1
v -9.1 6.2 -4.5
v -9.1 6.2 -4.1
v -9 6.2 -4.5
v -9 6.2 -4.1
v -8.9 6.2 -4.1
v -8.9 6.2 -4.5
v -6.3 6.2 -4
v -6.3 6.2 -4.5
v -6.3 6.2 -4.1
v -6.2 6.2 -4.5
v -6.2 6.2 -4.1
v -6.1 6.2 -4.1
v -6.1 6.2 -4.5
v -8.8 6.4 -4.5
v -8.2 6.4 -4.5
v -8.7 6.4 -4
v -8.7 6.4 -4.5
v -8.7 6.4 -4.1
v -8.2 6.4 -4.1
v -8.6 6.4 -4.5
v -8.6 6.4 -4.1
v -8.5 6.4 -4.1
v -8.5 6.4 -4.5
v -8.4 6.4 -4.5
v -8.4 6.4 -4.1
v -8.3 6.4 -4.1
v -8.3 6.4 -4.5
v -6.9 6.4 -4
v -6.9 6.4 -4.5
v -6.9 6.4 -4.1
v -6.8 6.4 -4.5
v -6.8 6.4 -4.1
v -6.7 6.4 -4.1
v -6.7 6.4 -4.5
v -6.6 6.4 -4.5
v -6.6 6.4 -4.1
v -6.5 6.4 -4.1
v -6.5 6.4 -4.5
v -8.2 6.6 -4.5
v -8.1 6.6 -4
v -8.1 6.6 -4.5
v -8.1 6.6 -4.1
v -8 6.6 -4.5
v -8 6.6 -4.1
v -7.9 6.6 -4.1
v -7.9 6.6 -4.5
v -7.8 6.6 -4.5
v -7.8 6.6 -4.1
v -7.7 6.6 -4.1
v -7.7 6.6 -4.5
v -7.6 6.6 -4.5
v -7.6 6.6 -4.1
v -7.5 6.6 -4.1
v -7.5 6.6 -4.5
v -7.4 6.6 -4.5
v -7.4 6.6 -4.1
v -7.3 6.6 -4.1
v -7.3 6.6 -4.5
v -7.2 6.6 -4.5
v -7.2 6.6 -4.1
v -7.1 6.6 -4.1
v -7.1 6.6 -4.5

# faces
f 1/11/1 2/11/1 3/11/1 4/11/1
f 5/11/1 6/11/1 7/11/1 8/11/1
f 2/3/1 5/3/1 8/3/1 3/3/1
f 9/3/1 10/3/1 11/3/1 12/3/1
f 13/3/1 14/3/1 15/3/1 16/3/1
f 4/7/1 3/7/1 17/7/1 18/7/1
f 3/7/1 7/7/1 19/7/1 20/7/1
f 21/7/1 19/7/1 22/7/1 23/7/1
f 24/7/1 25/7/1 10/7/1 9/7/1
f 12/7/1 11/7/1 26/7/1 27/7/1
f 28/7/1 29/7/1 14/7/1 13/7/1
f 16/7/1 15/7/1 30/7/1 31/7/1
f 32/7/1 33/7/1 23/7/1 17/7/1
f 20/4/1 21/4/1 25/4/1 24/4/1
f 27/4/1 26/4/1 29/4/1 28/4/1
f 31/4/1 30/4/1 33/4/1 32/4/1
f 34/7/1 35/7/1 36/7/1 37/7/1
f 38/7/1 39/7/1 40/7/1 41/7/1
f 42/7/1 43/7/1 44/7/1 45/7/1
f 46/7/1 47/7/1 48/7/1 49/7/1
f 50/7/1 51/7/1 52/7/1 53/7/1
f 54/7/1 55/7/1 56/7/1 57/7/1
f 58/7/1 59/7/1 60/7/1 61/7/1
f 62/7/1 63/7/1 64/7/1 65/7/1
f 66/7/1 67/7/1 57/7/1 52/7/1
f 35/4/1 38/4/1 43/4/1 42/4/1
f 49/4/1 48/4/1 41/4/1 36/4/1
f 61/4/1 60/4/1 63/4/1 62/4/1
f 45/3/1 44/3/1 47/3/1 46/3/1
f 51/3/1 54/3/1 59/3/1 58/3/1
f 65/3/1 64/3/1 67/3/1 66/3/1
f 37/11/1 40/11/1 68/11/1 69/11/1
f 70/7/1 71/7/1 72/7/1 73/7/1
f 74/7/1 75/7/1 76/7/1 77/7/1
f 78/7/1 79/7/1 80/7/1 81/7/1
f 82/7/1 83/7/1 84/7/1 85/7/1
f 86/7/1 87/7/1 88/7/1 89/7/1
f 71/4/1 74/4/1 79/4/1 78/4/1
f 83/4/1 86/4/1 90/4/1 91/4/1
f 81/3/1 80/3/1 77/3/1 72/3/1
f 92/3/1 93/3/1 89/3/1 84/3/1
f 73/11/1 76/11/1 94/11/1 95/11/1
f 91/11/1 90/11/1 93/11/1 92/11/1
f 85/11/1 88/11/1 96/11/1 97/11/1
f 98/7/1 99/7/1 100/7/1 101/7/1
f 102/7/1 103/7/1 104/7/1 105/7/1
f 106/7/1 107/7/1 108/7/1 109/7/1
f 110/7/1 111/7/1 112/7/1 113/7/1
f 114/7/1 115/7/1 113/7/1 108/7/1
f 99/3/1 102/3/1 105/3/1 100/3/1
f 101/11/1 104/11/1 116/11/1 117/11/1
f 107/4/1 110/4/1 115/4/1 114/4/1
f 118/7/1 119/7/1 120/7/1 121/7/1
f 122/7/1 123/7/1 124/7/1 125/7/1
f 126/7/1 127/7/1 128/7/1 129/7/1
f 130/7/1 131/7/1 132/7/1 133/7/1
f 134/7/1 135/7/1 133/7/1 128/7/1
f 119/4/1 122/4/1 125/4/1 120/4/1
f 121/11/1 124/11/1 136/11/1 137/11/1
f 127/3/1 130/3/1 135/3/1 134/3/1
f 138/7/1 139/7/1 140/7/1 141/7/1
f 142/7/1 143/7/1 144/7/1 145/7/1
f 146/7/1 147/7/1 148/7/1 149/7/1
f 150/7/1 151/7/1 152/7/1 153/7/1
f 139/3/1 142/3/1 145/3/1 140/3/1
f 141/11/1 144/11/1 154/11/1 155/11/1
f 149/11/1 152/11/1 156/11/1 157/11/1
f 147/4/1 150/4/1 153/4/1 148/4/1
f 158/7/1 159/7/1 160/7/1 161/7/1
f 162/7/1 163/7/1 164/7/1 165/7/1
f 166/7/1 167/7/1 168/7/1 169/7/1
f 170/7/1 171/7/1 172/7/1 173/7/1
f 174/7/1 175/7/1 173/7/1 168/7/1
f 159/4/1 162/4/1 165/4/1 160/4/1
f 161/11/1 164/11/1 176/11/1 177/11/1
f 167/3/1 170/3/1 175/3/1 174/3/1
f 178/7/1 179/7/1 180/7/1 181/7/1
f 182/7/1 183/7/1 184/7/1 185/7/1
f 186/7/1 187/7/1 185/7/1 180/7/1
f 188/7/1 189/7/1 190/7/1 191/7/1
f 192/7/1 193/7/1 194/7/1 195/7/1
f 196/7/1 197/7/1 195/7/1 190/7/1
f 179/3/1 182/3/1 187/3/1 186/3/1
f 189/4/1 192/4/1 197/4/1 196/4/1
f 198/5/1 199/5/1 200/5/1 201/5/1
f 202/5/1 203/5/1 204/5/1 205/5/1
f 199/4/1 202/4/1 205/4/1 200/4/1
f 201/7/1 204/7/1 206/7/1 207/7/1
f 208/7/1 209/7/1 210/7/1 211/7/1
f 212/7/1 213/7/1 214/7/1 215/7/1
f 216/7/1 217/7/1 215/7/1 210/7/1
f 209/3/1 212/3/1 217/3/1 216/3/1
f 218/11/1 219/11/1 220/11/1 221/11/1
f 222/11/1 223/11/1 224/11/1 225/11/1
f 226/11/1 227/11/1 225/11/1 220/11/1
f 228/11/1 229/11/1 230/11/1 231/11/1
f 219/4/1 222/4/1 227/4/1 226/4/1
f 232/4/1 233/4/1 234/4/1 235/4/1
f 236/7/1 232/7/1 235/7/1 228/7/1
f 233/7/1 237/7/1 229/7/1 234/7/1
f 238/7/1 239/7/1 240/7/1 241/7/1
f 242/7/1 243/7/1 244/7/1 245/7/1
f 246/7/1 247/7/1 245/7/1 240/7/1
f 239/3/1 242/3/1 247/3/1 246/3/1
f 248/11/1 249/11/1 250/11/1 251/11/1
f 252/7/2 253/7/2 254/7/2 255/7/2
f 255/7/2 256/7/2 257/7/2 258/7/2
f 259/7/2 260/7/2 261/7/2 257/7/2
f 256/3/2 254/3/2 260/3/2 259/3/2
f 262/3/2 263/3/2 264/3/2 265/3/2
f 266/11/2 267/11/2 263/11/2 268/11/2
f 268/11/2 262/11/2 269/11/2 270/11/2
f 265/11/2 264/11/2 271/11/2 269/11/2
f 272/7/2 273/7/2 274/7/2 275/7/2
f 273/11/2 276/11/2 277/11/2 278/11/2
f 279/11/2 280/11/2 281/11/2 274/11/2
f 282/11/2 283/11/2 284/11/2 285/11/2
f 285/11/2 286/11/2 287/11/2 288/11/2
f 289/11/2 290/11/2 291/11/2 287/11/2
f 278/4/2 277/4/2 280/4/2 279/4/2
f 286/4/2 284/4/2 290/4/2 289/4/2
f 292/9/2 293/9/2 294/9/2 295/9/2
f 293/7/2 296/7/2 297/7/2 298/7/2
f 299/7/2 300/7/2 301/7/2 294/7/2
f 298/3/2 297/3/2 300/3/2 299/3/2
f 302/11/2 303/11/2 304/11/2 305/11/2
f 305/11/2 306/11/2 307/11/2 308/11/2
f 309/11/2 310/11/2 311/11/2 307/11/2
f 306/4/2 304/4/2 310/4/2 309/4/2
f 312/9/2 313/9/2 314/9/2 315/9/2
f 313/11/2 316/11/2 317/11/2 318/11/2
f 319/11/2 320/11/2 321/11/2 314/11/2
f 322/11/2 323/11/2 324/11/2 325/11/2
f 325/11/2 326/11/2 327/11/2 328/11/2
f 329/11/2 330/11/2 331/11/2 327/11/2
f 318/4/2 317/4/2 320/4/2 319/4/2
f 326/3/2 324/3/2 330/3/2 329/3/2
f 332/7/2 333/7/2 334/7/2 335/7/2
f 333/11/2 336/11/2 337/11/2 338/11/2
f 339/11/2 340/11/2 341/11/2 334/11/2
f 342/11/2 343/11/2 344/11/2 345/11/2
f 345/11/2 346/11/2 347/11/2 348/11/2
f 349/11/2 350/11/2 351/11/2 347/11/2
f 338/3/2 337/3/2 340/3/2 339/3/2
f 346/4/2 344/4/2 350/4/2 349/4/2
f 352/11/2 353/11/2 354/11/2 355/11/2
f 355/11/2 356/11/2 357/11/2 358/11/2
f 359/11/2 360/11/2 361/11/2 357/11/2
f 362/11/2 363/11/2 364/11/2 365/11/2
f 365/11/2 366/11/2 367/11/2 368/11/2
f 369/11/2 370/11/2 371/11/2 367/11/2
f 356/4/2 354/4/2 360/4/2 359/4/2
f 366/3/2 364/3/2 370/3/2 369/3/2
f 372/7/2 373/7/2 374/7/2 375/7/2
f 373/11/2 376/11/2 377/11/2 378/11/2
f 379/11/2 380/11/2 381/11/2 374/11/2
f 382/11/2 383/11/2 384/11/2 385/11/2
f 385/11/2 386/11/2 387/11/2 388/11/2
f 389/11/2 390/11/2 391/11/2 387/11/2
f 378/3/2 377/3/2 380/3/2 379/3/2
f 386/4/2 384/4/2 390/4/2 389/4/2
f 392/7/2 393/7/2 394/7/2 395/7/2
f 396/7/2 397/7/2 398/7/2 399/7/2
f 393/11/2 400/11/2 401/11/2 402/11/2
f 403/11/2 404/11/2 405/11/2 394/11/2
f 397/11/2 406/11/2 407/11/2 408/11/2
f 409/11/2 410/11/2 411/11/2 398/11/2
f 402/4/2 401/4/2 404/4/2 403/4/2
f 408/3/2 407/3/2 410/3/2 409/3/2
f 412/7/2 413/7/2 414/7/2 415/7/2
f 416/7/2 417/7/2 418/7/2 419/7/2
f 413/11/2 420/11/2 421/11/2 422/11/2
f 423/11/2 424/11/2 425/11/2 414/11/2
f 426/11/2 427/11/2 428/11/2 429/11/2
f 417/11/2 430/11/2 431/11/2 432/11/2
f 433/11/2 434/11/2 435/11/2 418/11/2
f 436/11/2 437/11/2 438/11/2 439/11/2
f 422/3/2 426/3/2 429/3/2 423/3/2
f 432/3/2 436/3/2 439/3/2 433/3/2
f 427/4/2 421/4/2 424/4/2 428/4/2
f 437/4/2 431/4/2 434/4/2 438/4/2
f 440/11/2 441/11/2 442/11/2 443/11/2
f 443/11/2 444/11/2 445/11/2 446/11/2
f 447/11/2 448/11/2 449/11/2 445/11/2
f 450/11/2 451/11/2 452/11/2 453/11/2
f 454/11/2 455/11/2 456/11/2 457/11/2
f 458/11/2 459/11/2 460/11/2 461/11/2
f 444/3/2 450/3/2 453/3/2 447/3/2
f 455/3/2 442/3/2 448/3/2 456/3/2
f 462/3/2 463/3/2 464/3/2 460/3/2
f 451/4/2 454/4/2 457/4/2 452/4/2
f 465/4/2 466/4/2 461/4/2 467/4/2
f 468/4/2 469/4/2 470/4/2 471/4/2
f 472/7/2 473/7/2 469/7/2 474/7/2
f 474/7/2 465/7/2 475/7/2 476/7/2
f 467/7/2 470/7/2 477/7/2 475/7/2
f 466/7/2 462/7/2 459/7/2 458/7/2
f 463/7/2 468/7/2 471/7/2 464/7/2
f 478/7/2 479/7/2 480/7/2 481/7/2
f 481/7/2 482/7/2 483/7/2 484/7/2
f 485/7/2 486/7/2 487/7/2 483/7/2
f 488/7/2 489/7/2 490/7/2 491/7/2
f 492/7/2 493/7/2 494/7/2 495/7/2
f 496/7/2 497/7/2 498/7/2 499/7/2
f 500/7/2 501/7/2 502/7/2 503/7/2
f 504/7/2 505/7/2 506/7/2 507/7/2
f 482/4/2 488/4/2 491/4/2 485/4/2
f 493/4/2 496/4/2 499/4/2 494/4/2
f 501/4/2 504/4/2 507/4/2 502/4/2
f 489/3/2 492/3/2 495/3/2 490/3/2
f 497/3/2 500/3/2 503/3/2 498/3/2
f 505/3/2 480/3/2 486/3/2 506/3/2
f 6/11/3 508/11/3 509/11/3 7/11/3
f 509/11/3 510/11/3 511/11/3 512/11/3
f 40/11/3 513/11/3 514/11/3 68/11/3
f 515/11/3 94/11/3 516/11/3 513/11/3
f 517/11/3 518/11/3 87/11/3 519/11/3
f 76/11/3 520/11/3 521/11/3 94/11/3
f 88/11/3 522/11/3 111/11/3 96/11/3
f 523/11/3 524/11/3 525/11/3 520/11/3
f 526/11/3 527/11/3 522/11/3 528/11/3
f 104/11/3 529/11/3 530/11/3 116/11/3
f 531/11/3 532/11/3 131/11/3 533/11/3
f 124/11/3 534/11/3 535/11/3 136/11/3
f 536/11/3 154/11/3 534/11/3 537/11/3
f 538/11/3 539/11/3 151/11/3 540/11/3
f 144/11/3 541/11/3 542/11/3 154/11/3
f 152/11/3 543/11/3 171/11/3 156/11/3
f 544/11/3 176/11/3 541/11/3 545/11/3
f 164/11/3 546/11/3 547/11/3 176/11/3
f 548/11/3 549/11/3 550/11/3 551/11/3
f 552/11/3 553/11/3 554/11/3 555/11/3
f 556/11/3 557/11/3 193/11/3 558/11/3
f 559/11/3 560/11/3 561/11/3 549/11/3
f 562/11/3 563/11/3 564/11/3 565/11/3
f 566/11/3 567/11/3 568/11/3 569/11/3
f 570/11/3 571/11/3 572/11/3 561/11/3
f 573/11/3 574/11/3 575/11/3 576/11/3
f 577/11/3 578/11/3 579/11/3 580/11/3
f 581/11/3 582/11/3 583/11/3 584/11/3
f 585/11/3 586/11/3 237/11/3 587/11/3
f 588/11/3 589/11/3 590/11/3 591/11/3
f 592/11/3 593/11/3 594/11/3 574/11/3
f 595/11/3 596/11/3 597/11/3 598/11/3
f 223/11/3 599/11/3 600/11/3 224/11/3
f 601/11/3 602/11/3 603/11/3 604/11/3
f 229/11/3 605/11/3 249/11/3 230/11/3
f 606/11/3 607/11/3 602/11/3 608/11/3
f 609/11/3 610/11/3 611/11/3 612/11/3
f 613/11/3 614/11/3 615/11/3 616/11/3
f 617/11/3 618/11/3 619/11/3 614/11/3
f 620/11/3 621/11/3 622/11/3 623/11/3
f 624/11/3 625/11/3 626/11/3 627/11/3
f 628/11/3 629/11/3 630/11/3 631/11/3
f 632/11/3 633/11/3 618/11/3 634/11/3
f 635/11/3 636/11/3 637/11/3 621/11/3
f 622/11/3 638/11/3 639/11/3 640/11/3
f 641/11/3 642/11/3 643/11/3 600/11/3
f 644/11/3 645/11/3 646/11/3 647/11/3
f 648/11/3 649/11/3 650/11/3 645/11/3
f 639/11/3 651/11/3 652/11/3 653/11/3
f 249/11/3 270/11/3 271/11/3 250/11/3
f 654/11/3 655/11/3 625/11/3 656/11/3
f 657/11/3 658/11/3 659/11/3 660/11/3
f 661/11/3 662/11/3 649/11/3 663/11/3
f 664/11/3 665/11/3 666/11/3 667/11/3
f 668/11/3 669/11/3 670/11/3 671/11/3
f 650/11/3 672/11/3 673/11/3 674/11/3
f 675/11/3 676/11/3 677/11/3 678/11/3
f 679/11/3 680/11/3 681/11/3 682/11/3
f 683/11/3 684/11/3 676/11/3 685/11/3
f 677/11/3 686/11/3 687/11/3 688/11/3
f 689/11/3 690/11/3 691/11/3 692/11/3
f 693/11/3 694/11/3 695/11/3 696/11/3
f 696/11/3 697/11/3 698/11/3 699/11/3
f 700/11/3 695/11/3 701/11/3 702/11/3
f 703/11/3 704/11/3 705/11/3 691/11/3
f 706/11/3 707/11/3 708/11/3 686/11/3
f 709/11/3 710/11/3 711/11/3 712/11/3
f 713/11/3 714/11/3 715/11/3 716/11/3
f 717/11/3 718/11/3 719/11/3 720/11/3
f 721/11/3 722/11/3 723/11/3 724/11/3
f 725/11/3 726/11/3 727/11/3 714/11/3
f 728/11/3 729/11/3 730/11/3 731/11/3
f 732/11/3 733/11/3 734/11/3 707/11/3
f 735/11/3 736/11/3 737/11/3 738/11/3
f 730/11/3 739/11/3 740/11/3 741/11/3
f 742/11/3 743/11/3 744/11/3 733/11/3
f 745/11/3 288/11/3 291/11/3 270/11/3
f 746/11/3 274/11/3 281/11/3 747/11/3
f 748/11/3 749/11/3 750/11/3 737/11/3
f 751/11/3 752/11/3 753/11/3 754/11/3
f 755/11/3 756/11/3 757/11/3 752/11/3
f 740/11/3 758/11/3 759/11/3 743/11/3
f 760/11/3 761/11/3 756/11/3 762/11/3
f 750/11/3 763/11/3 764/11/3 765/11/3
f 766/11/3 767/11/3 768/11/3 761/11/3
f 757/11/3 769/11/3 770/11/3 771/11/3
f 772/11/3 773/11/3 774/11/3 770/11/3
f 775/11/3 776/11/3 777/11/3 778/11/3
f 779/11/3 780/11/3 781/11/3 782/11/3
f 783/11/3 308/11/3 311/11/3 288/11/3
f 784/11/3 785/11/3 786/11/3 787/11/3
f 788/11/3 789/11/3 790/11/3 791/11/3
f 781/11/3 792/11/3 793/11/3 794/11/3
f 795/11/3 796/11/3 797/11/3 798/11/3
f 793/11/3 799/11/3 800/11/3 801/11/3
f 802/11/3 803/11/3 804/11/3 805/11/3
f 806/11/3 328/11/3 331/11/3 308/11/3
f 807/11/3 314/11/3 321/11/3 808/11/3
f 800/11/3 809/11/3 810/11/3 811/11/3
f 812/11/3 348/11/3 351/11/3 328/11/3
f 813/11/3 334/11/3 341/11/3 814/11/3
f 815/11/3 816/11/3 817/11/3 810/11/3
f 818/11/3 819/11/3 820/11/3 821/11/3
f 822/11/3 357/11/3 361/11/3 823/11/3
f 824/11/3 368/11/3 371/11/3 348/11/3
f 825/11/3 358/11/3 357/11/3 826/11/3
f 827/11/3 388/11/3 391/11/3 368/11/3
f 828/11/3 374/11/3 381/11/3 829/11/3
f 830/11/3 398/11/3 411/11/3 388/11/3
f 831/11/3 394/11/3 405/11/3 832/11/3
f 833/11/3 414/11/3 425/11/3 834/11/3
f 835/11/3 418/11/3 435/11/3 836/11/3
f 837/11/3 446/11/3 449/11/3 838/11/3
f 839/11/3 840/11/3 841/11/3 842/11/3
f 7/7/3 509/7/3 843/7/3 22/7/3
f 508/7/3 68/7/3 510/7/3 509/7/3
f 512/7/3 511/7/3 55/7/3 843/7/3
f 39/7/3 515/7/3 513/7/3 40/7/3
f 55/7/3 844/7/3 518/7/3 845/7/3
f 845/7/3 517/7/3 519/7/3 56/7/3
f 75/7/3 116/7/3 524/7/3 846/7/3
f 846/7/3 523/7/3 520/7/3 76/7/3
f 87/7/3 847/7/3 528/7/3 88/7/3
f 520/7/3 525/7/3 848/7/3 521/7/3
f 103/7/3 136/7/3 849/7/3 104/7/3
f 111/7/3 850/7/3 532/7/3 851/7/3
f 851/7/3 531/7/3 533/7/3 112/7/3
f 529/7/3 849/7/3 852/7/3 530/7/3
f 123/7/3 536/7/3 537/7/3 124/7/3
f 131/7/3 853/7/3 539/7/3 854/7/3
f 854/7/3 538/7/3 540/7/3 132/7/3
f 143/7/3 544/7/3 545/7/3 144/7/3
f 151/7/3 855/7/3 543/7/3 152/7/3
f 163/7/3 856/7/3 857/7/3 164/7/3
f 858/7/3 552/7/3 859/7/3 860/7/3
f 171/7/3 861/7/3 558/7/3 172/7/3
f 183/7/3 206/7/3 567/7/3 862/7/3
f 862/7/3 566/7/3 569/7/3 184/7/3
f 193/7/3 863/7/3 864/7/3 194/7/3
f 865/7/3 866/7/3 213/7/3 864/7/3
f 204/7/3 577/7/3 580/7/3 206/7/3
f 867/7/3 581/7/3 584/7/3 868/7/3
f 213/7/3 869/7/3 586/7/3 870/7/3
f 870/7/3 585/7/3 587/7/3 214/7/3
f 871/7/3 224/7/3 578/7/3 872/7/3
f 873/7/3 874/7/3 596/7/3 595/7/3
f 875/7/3 606/7/3 608/7/3 601/7/3
f 237/7/3 876/7/3 605/7/3 229/7/3
f 611/7/3 632/7/3 634/7/3 617/7/3
f 877/7/3 878/7/3 879/7/3 628/7/3
f 619/7/3 644/7/3 647/7/3 880/7/3
f 599/7/3 244/7/3 642/7/3 641/7/3
f 243/7/3 258/7/3 261/7/3 244/7/3
f 881/7/3 657/7/3 660/7/3 882/7/3
f 883/7/3 674/7/3 665/7/3 884/7/3
f 884/7/3 664/7/3 885/7/3 636/7/3
f 886/7/3 887/7/3 658/7/3 657/7/3
f 626/7/3 888/7/3 669/7/3 668/7/3
f 659/7/3 889/7/3 682/7/3 890/7/3
f 652/7/3 891/7/3 684/7/3 892/7/3
f 892/7/3 683/7/3 685/7/3 675/7/3
f 893/7/3 689/7/3 894/7/3 680/7/3
f 895/7/3 693/7/3 699/7/3 896/7/3
f 690/7/3 720/7/3 704/7/3 703/7/3
f 897/7/3 713/7/3 898/7/3 899/7/3
f 900/7/3 735/7/3 738/7/3 710/7/3
f 901/7/3 902/7/3 903/7/3 717/7/3
f 715/7/3 904/7/3 729/7/3 728/7/3
f 905/7/3 906/7/3 907/7/3 908/7/3
f 261/7/3 909/7/3 746/7/3 910/7/3
f 727/7/3 751/7/3 754/7/3 911/7/3
f 912/7/3 275/7/3 274/7/3 913/7/3
f 769/7/3 914/7/3 773/7/3 772/7/3
f 281/7/3 915/7/3 784/7/3 916/7/3
f 774/7/3 917/7/3 789/7/3 918/7/3
f 785/7/3 294/7/3 301/7/3 786/7/3
f 790/7/3 919/7/3 920/7/3 921/7/3
f 922/7/3 923/7/3 796/7/3 924/7/3
f 924/7/3 795/7/3 798/7/3 925/7/3
f 926/7/3 920/7/3 923/7/3 927/7/3
f 301/7/3 928/7/3 808/7/3 929/7/3
f 321/7/3 335/7/3 334/7/3 930/7/3
f 930/7/3 813/7/3 814/7/3 931/7/3
f 932/7/3 933/7/3 819/7/3 934/7/3
f 934/7/3 818/7/3 821/7/3 935/7/3
f 341/7/3 825/7/3 826/7/3 822/7/3
f 361/7/3 375/7/3 374/7/3 936/7/3
f 381/7/3 395/7/3 394/7/3 937/7/3
f 938/7/3 399/7/3 398/7/3 830/7/3
f 405/7/3 415/7/3 414/7/3 939/7/3
f 939/7/3 833/7/3 940/7/3 941/7/3
f 942/7/3 419/7/3 418/7/3 943/7/3
f 944/7/3 945/7/3 836/7/3 399/7/3
f 425/7/3 837/7/3 838/7/3 946/7/3
f 947/7/3 476/7/3 477/7/3 419/7/3
f 449/7/3 484/7/3 483/7/3 839/7/3
f 948/7/3 949/7/3 487/7/3 476/7/3
f 840/7/3 483/7/3 949/7/3 950/7/3
f 68/3/3 951/3/3 844/3/3 55/3/3
f 94/3/3 848/3/3 952/3/3 951/3/3
f 844/3/3 953/3/3 954/3/3 87/3/3
f 116/3/3 852/3/3 955/3/3 848/3/3
f 952/3/3 956/3/3 957/3/3 953/3/3
f 954/3/3 958/3/3 850/3/3 111/3/3
f 959/3/3 960/3/3 961/3/3 957/3/3
f 136/3/3 535/3/3 962/3/3 852/3/3
f 955/3/3 963/3/3 964/3/3 965/3/3
f 965/3/3 966/3/3 967/3/3 968/3/3
f 968/3/3 969/3/3 970/3/3 971/3/3
f 972/3/3 961/3/3 973/3/3 958/3/3
f 850/3/3 974/3/3 853/3/3 131/3/3
f 975/3/3 976/3/3 977/3/3 973/3/3
f 154/3/3 542/3/3 978/3/3 535/3/3
f 962/3/3 979/3/3 980/3/3 981/3/3
f 981/3/3 982/3/3 983/3/3 984/3/3
f 984/3/3 985/3/3 963/3/3 986/3/3
f 987/3/3 551/3/3 858/3/3 988/3/3
f 989/3/3 990/3/3 991/3/3 974/3/3
f 853/3/3 992/3/3 855/3/3 151/3/3
f 993/3/3 994/3/3 990/3/3 977/3/3
f 176/3/3 547/3/3 995/3/3 542/3/3
f 978/3/3 996/3/3 979/3/3 997/3/3
f 998/3/3 999/3/3 1000/3/3 1001/3/3
f 1002/3/3 1003/3/3 1004/3/3 992/3/3
f 855/3/3 1005/3/3 1006/3/3 171/3/3
f 184/3/3 568/3/3 1007/3/3 547/3/3
f 995/3/3 1008/3/3 1009/3/3 1010/3/3
f 1010/3/3 1011/3/3 996/3/3 1012/3/3
f 549/3/3 1013/3/3 874/3/3 550/3/3
f 550/3/3 1014/3/3 1015/3/3 1016/3/3
f 1016/3/3 1017/3/3 868/3/3 554/3/3
f 1018/3/3 1019/3/3 1020/3/3 1005/3/3
f 1006/3/3 1021/3/3 1022/3/3 193/3/3
f 206/3/3 579/3/3 1023/3/3 568/3/3
f 1007/3/3 1024/3/3 1008/3/3 1025/3/3
f 576/3/3 1026/3/3 1013/3/3 572/3/3
f 1027/3/3 1020/3/3 1028/3/3 1021/3/3
f 1022/3/3 1029/3/3 869/3/3 213/3/3
f 574/3/3 594/3/3 1026/3/3 575/3/3
f 1030/3/3 1031/3/3 1032/3/3 583/3/3
f 1033/3/3 1034/3/3 1035/3/3 1036/3/3
f 224/3/3 643/3/3 1037/3/3 579/3/3
f 1023/3/3 1038/3/3 1039/3/3 1040/3/3
f 874/3/3 615/3/3 1041/3/3 597/3/3
f 1042/3/3 1028/3/3 1043/3/3 1029/3/3
f 869/3/3 1044/3/3 876/3/3 237/3/3
f 1045/3/3 1046/3/3 1047/3/3 1048/3/3
f 1049/3/3 1050/3/3 1051/3/3 1047/3/3
f 1052/3/3 1053/3/3 1003/3/3 991/3/3
f 1054/3/3 1055/3/3 1056/3/3 1057/3/3
f 1058/3/3 1059/3/3 1060/3/3 1061/3/3
f 1062/3/3 1063/3/3 1019/3/3 1004/3/3
f 244/3/3 261/3/3 1064/3/3 643/3/3
f 1056/3/3 671/3/3 887/3/3 1065/3/3
f 637/3/3 1066/3/3 1067/3/3 638/3/3
f 1068/3/3 1069/3/3 1070/3/3 1044/3/3
f 876/3/3 745/3/3 270/3/3 249/3/3
f 1071/3/3 1072/3/3 1069/3/3 1043/3/3
f 1073/3/3 1074/3/3 1075/3/3 1066/3/3
f 1067/3/3 1076/3/3 1077/3/3 651/3/3
f 1078/3/3 1079/3/3 1080/3/3 1081/3/3
f 1082/3/3 1083/3/3 895/3/3 1084/3/3
f 673/3/3 1085/3/3 1086/3/3 1074/3/3
f 1075/3/3 1087/3/3 1088/3/3 1076/3/3
f 1077/3/3 1089/3/3 1090/3/3 891/3/3
f 1091/3/3 1092/3/3 1093/3/3 1094/3/3
f 1095/3/3 897/3/3 1096/3/3 1085/3/3
f 1086/3/3 1097/3/3 1098/3/3 1087/3/3
f 1088/3/3 1099/3/3 1100/3/3 1089/3/3
f 1090/3/3 706/3/3 686/3/3 1101/3/3
f 1102/3/3 721/3/3 724/3/3 694/3/3
f 1096/3/3 715/3/3 731/3/3 1097/3/3
f 1098/3/3 1103/3/3 1104/3/3 1099/3/3
f 1100/3/3 732/3/3 707/3/3 706/3/3
f 1105/3/3 705/3/3 721/3/3 1106/3/3
f 1107/3/3 1108/3/3 1109/3/3 1110/3/3
f 1110/3/3 1111/3/3 1112/3/3 1113/3/3
f 711/3/3 1114/3/3 1115/3/3 901/3/3
f 731/3/3 730/3/3 741/3/3 1103/3/3
f 1104/3/3 742/3/3 733/3/3 732/3/3
f 1116/3/3 1117/3/3 1118/3/3 1119/3/3
f 1119/3/3 1120/3/3 1121/3/3 1122/3/3
f 1122/3/3 1123/3/3 1124/3/3 1125/3/3
f 1125/3/3 1126/3/3 1108/3/3 1127/3/3
f 1064/3/3 281/3/3 1128/3/3 1129/3/3
f 1130/3/3 1131/3/3 1132/3/3 1114/3/3
f 1133/3/3 1134/3/3 1135/3/3 1136/3/3
f 741/3/3 740/3/3 743/3/3 742/3/3
f 1112/3/3 783/3/3 288/3/3 745/3/3
f 1137/3/3 1138/3/3 1139/3/3 1140/3/3
f 1141/3/3 1142/3/3 1143/3/3 1144/3/3
f 1144/3/3 1145/3/3 1117/3/3 1146/3/3
f 1147/3/3 1148/3/3 1138/3/3 1149/3/3
f 1150/3/3 1151/3/3 1152/3/3 1153/3/3
f 1153/3/3 1154/3/3 1142/3/3 1155/3/3
f 771/3/3 774/3/3 1156/3/3 1157/3/3
f 1158/3/3 1159/3/3 1160/3/3 1161/3/3
f 1162/3/3 1163/3/3 1164/3/3 1165/3/3
f 1128/3/3 301/3/3 929/3/3 1159/3/3
f 782/3/3 781/3/3 917/3/3 774/3/3
f 1166/3/3 922/3/3 925/3/3 1167/3/3
f 1109/3/3 806/3/3 308/3/3 783/3/3
f 1168/3/3 1169/3/3 1170/3/3 1171/3/3
f 794/3/3 793/3/3 919/3/3 790/3/3
f 1172/3/3 1173/3/3 1174/3/3 1175/3/3
f 1176/3/3 1177/3/3 1178/3/3 1179/3/3
f 929/3/3 321/3/3 931/3/3 1169/3/3
f 1180/3/3 1181/3/3 1177/3/3 1170/3/3
f 801/3/3 800/3/3 935/3/3 797/3/3
f 1124/3/3 812/3/3 328/3/3 806/3/3
f 1182/3/3 1183/3/3 1184/3/3 1185/3/3
f 931/3/3 341/3/3 823/3/3 1181/3/3
f 1186/3/3 1187/3/3 1188/3/3 1178/3/3
f 1121/3/3 824/3/3 348/3/3 812/3/3
f 1189/3/3 1184/3/3 1190/3/3 1191/3/3
f 823/3/3 361/3/3 1192/3/3 1187/3/3
f 1193/3/3 1194/3/3 1183/3/3 1188/3/3
f 817/3/3 1195/3/3 1196/3/3 933/3/3
f 1118/3/3 827/3/3 368/3/3 824/3/3
f 1197/3/3 1198/3/3 1199/3/3 1200/3/3
f 1201/3/3 1202/3/3 1151/3/3 1203/3/3
f 1192/3/3 381/3/3 1204/3/3 1194/3/3
f 1205/3/3 1206/3/3 1198/3/3 1190/3/3
f 1143/3/3 938/3/3 388/3/3 827/3/3
f 1207/3/3 1199/3/3 1208/3/3 1209/3/3
f 1210/3/3 1211/3/3 1212/3/3 1213/3/3
f 1213/3/3 1214/3/3 1202/3/3 1215/3/3
f 1204/3/3 405/3/3 1216/3/3 1206/3/3
f 1152/3/3 942/3/3 399/3/3 938/3/3
f 1217/3/3 1218/3/3 1211/3/3 1219/3/3
f 1216/3/3 425/3/3 946/3/3 1218/3/3
f 1212/3/3 947/3/3 419/3/3 942/3/3
f 946/3/3 449/3/3 476/3/3 947/3/3
f 513/8/3 516/8/3 951/8/3 514/8/3
f 667/8/3 666/8/3 1073/8/3 885/8/3
f 951/1/3 952/1/3 953/1/3 844/1/3
f 848/1/3 955/1/3 1220/1/3 952/1/3
f 953/1/3 972/1/3 958/1/3 954/1/3
f 852/1/3 962/1/3 986/1/3 955/1/3
f 958/1/3 989/1/3 974/1/3 850/1/3
f 535/1/3 978/1/3 997/1/3 962/1/3
f 988/1/3 858/1/3 998/1/3 1221/1/3
f 974/1/3 1002/1/3 992/1/3 853/1/3
f 542/1/3 995/1/3 1012/1/3 978/1/3
f 551/1/3 550/1/3 553/1/3 858/1/3
f 1001/1/3 1000/1/3 1222/1/3 1223/1/3
f 992/1/3 1018/1/3 1005/1/3 855/1/3
f 547/1/3 1007/1/3 1025/1/3 995/1/3
f 1005/1/3 1027/1/3 1021/1/3 1006/1/3
f 568/1/3 1023/1/3 875/1/3 1007/1/3
f 1021/1/3 1042/1/3 1029/1/3 1022/1/3
f 583/1/3 1032/1/3 1224/1/3 999/1/3
f 579/1/3 1037/1/3 1225/1/3 1023/1/3
f 597/1/3 1041/1/3 1226/1/3 1031/1/3
f 1029/1/3 1068/1/3 1044/1/3 869/1/3
f 614/1/3 619/1/3 880/1/3 615/1/3
f 643/1/3 1064/1/3 1129/1/3 1037/1/3
f 1055/1/3 626/1/3 671/1/3 1056/1/3
f 1227/1/3 895/1/3 896/1/3 1060/1/3
f 1044/1/3 1112/1/3 745/1/3 876/1/3
f 887/1/3 1228/1/3 893/1/3 659/1/3
f 681/1/3 691/1/3 694/1/3 895/1/3
f 896/1/3 701/1/3 897/1/3 672/1/3
f 1085/1/3 1096/1/3 1097/1/3 1086/1/3
f 1087/1/3 1098/1/3 1099/1/3 1088/1/3
f 1089/1/3 1100/1/3 706/1/3 1090/1/3
f 1229/1/3 901/1/3 720/1/3 690/1/3
f 694/1/3 1230/1/3 1136/1/3 701/1/3
f 1097/1/3 731/1/3 1103/1/3 1098/1/3
f 1099/1/3 1104/1/3 732/1/3 1100/1/3
f 710/1/3 1130/1/3 1114/1/3 711/1/3
f 1103/1/3 741/1/3 742/1/3 1104/1/3
f 1129/1/3 1128/1/3 1159/1/3 1231/1/3
f 1111/1/3 1109/1/3 783/1/3 1112/1/3
f 752/1/3 757/1/3 771/1/3 753/1/3
f 1157/1/3 1156/1/3 1166/1/3 1232/1/3
f 1159/1/3 929/1/3 1169/1/3 763/1/3
f 1167/1/3 925/1/3 1172/1/3 1233/1/3
f 1126/1/3 1124/1/3 806/1/3 1109/1/3
f 1175/1/3 1174/1/3 1234/1/3 1235/1/3
f 1169/1/3 931/1/3 1181/1/3 1180/1/3
f 1123/1/3 1121/1/3 812/1/3 1124/1/3
f 1181/1/3 823/1/3 1187/1/3 1186/1/3
f 811/1/3 817/1/3 933/1/3 932/1/3
f 1120/1/3 1118/1/3 824/1/3 1121/1/3
f 1187/1/3 1192/1/3 1194/1/3 1193/1/3
f 933/1/3 1196/1/3 1236/1/3 1173/1/3
f 1145/1/3 1143/1/3 827/1/3 1118/1/3
f 1194/1/3 1204/1/3 1206/1/3 1205/1/3
f 1154/1/3 1152/1/3 938/1/3 1143/1/3
f 1206/1/3 1216/1/3 1218/1/3 1237/1/3
f 1214/1/3 1212/1/3 942/1/3 1152/1/3
f 1218/1/3 946/1/3 947/1/3 1212/1/3
f 847/6/3 954/6/3 527/6/3 526/6/3
f 860/6/3 859/6/3 555/6/3 1238/6/3
f 861/6/3 1006/6/3 557/6/3 556/6/3
f 554/6/3 868/6/3 563/6/3 562/6/3
f 560/6/3 576/6/3 571/6/3 570/6/3
f 863/6/3 1022/6/3 866/6/3 865/6/3
f 1017/6/3 1015/6/3 582/6/3 867/6/3
f 1014/6/3 873/6/3 598/6/3 1015/6/3
f 594/6/3 1239/6/3 610/6/3 1240/6/3
f 1240/6/3 609/6/3 612/6/3 1026/6/3
f 1013/6/3 613/6/3 616/6/3 874/6/3
f 1241/6/3 1242/6/3 627/6/3 607/6/3
f 1243/6/3 877/6/3 631/6/3 1239/6/3
f 1065/6/3 886/6/3 657/6/3 881/6/3
f 878/6/3 890/6/3 629/6/3 879/6/3
f 1060/6/3 661/6/3 663/6/3 648/6/3
f 1244/6/3 709/6/3 712/6/3 1245/6/3
f 899/6/3 898/6/3 716/6/3 1096/6/3
f 705/6/3 905/6/3 908/6/3 721/6/3
f 1246/6/3 1247/6/3 1248/6/3 725/6/3
f 902/6/3 1115/6/3 718/6/3 903/6/3
f 910/6/3 746/6/3 747/6/3 1064/6/3
f 1135/6/3 760/6/3 762/6/3 755/6/3
f 906/6/3 1249/6/3 722/6/3 907/6/3
f 723/6/3 782/6/3 767/6/3 766/6/3
f 916/6/3 784/6/3 787/6/3 1128/6/3
f 918/6/3 788/6/3 791/6/3 1156/6/3
f 921/6/3 926/6/3 927/6/3 922/6/3
f 797/6/3 935/6/3 803/6/3 802/6/3
f 809/6/3 1250/6/3 816/6/3 815/6/3
f 936/6/3 828/6/3 829/6/3 1192/6/3
f 937/6/3 831/6/3 832/6/3 1204/6/3
f 941/6/3 940/6/3 834/6/3 1216/6/3
f 943/6/3 835/6/3 945/6/3 944/6/3
f 842/6/3 841/6/3 950/6/3 948/6/3
f 956/2/3 1220/2/3 1251/2/3 959/2/3
f 971/2/3 1252/2/3 987/2/3 1220/2/3
f 1253/2/3 1221/2/3 1254/2/3 1251/2/3
f 969/2/3 1255/2/3 548/2/3 1256/2/3
f 1256/2/3 1257/2/3 1252/2/3 970/2/3
f 960/2/3 1254/2/3 1258/2/3 975/2/3
f 1259/2/3 1223/2/3 1260/2/3 1258/2/3
f 966/2/3 1261/2/3 559/2/3 1262/2/3
f 1262/2/3 1263/2/3 1255/2/3 967/2/3
f 976/2/3 1260/2/3 1264/2/3 993/2/3
f 1265/2/3 1266/2/3 1036/2/3 1264/2/3
f 985/2/3 1267/2/3 573/2/3 963/2/3
f 963/2/3 1268/2/3 1261/2/3 964/2/3
f 982/2/3 1269/2/3 592/2/3 1270/2/3
f 1270/2/3 1271/2/3 1267/2/3 983/2/3
f 1011/2/3 1045/2/3 1272/2/3 996/2/3
f 996/2/3 588/2/3 1269/2/3 980/2/3
f 1222/2/3 1273/2/3 1274/2/3 1275/2/3
f 1275/2/3 1033/2/3 1266/2/3 1276/2/3
f 1024/2/3 875/2/3 1277/2/3 1009/2/3
f 1040/2/3 1278/2/3 607/2/3 875/2/3
f 604/2/3 1057/2/3 1279/2/3 1277/2/3
f 589/2/3 1272/2/3 1280/2/3 594/2/3
f 1224/2/3 1281/2/3 621/2/3 1282/2/3
f 1282/2/3 620/2/3 1273/2/3 1283/2/3
f 1038/2/3 1241/2/3 1278/2/3 1039/2/3
f 1048/2/3 1284/2/3 890/2/3 1285/2/3
f 1285/2/3 1243/2/3 1239/2/3 1280/2/3
f 1034/2/3 1274/2/3 1286/2/3 1035/2/3
f 1226/2/3 1287/2/3 636/2/3 1288/2/3
f 1288/2/3 635/2/3 1281/2/3 1289/2/3
f 623/2/3 622/2/3 1290/2/3 1286/2/3
f 1046/2/3 1279/2/3 1291/2/3 1049/2/3
f 994/2/3 1290/2/3 1292/2/3 1052/2/3
f 1293/2/3 1065/2/3 881/2/3 1291/2/3
f 1294/2/3 1227/2/3 1059/2/3 1295/2/3
f 1295/2/3 1058/2/3 1061/2/3 633/2/3
f 880/2/3 1296/2/3 674/2/3 1297/2/3
f 1297/2/3 883/2/3 1287/2/3 1298/2/3
f 640/2/3 639/2/3 1299/2/3 1292/2/3
f 1050/2/3 881/2/3 1300/2/3 1051/2/3
f 1053/2/3 1299/2/3 1301/2/3 1062/2/3
f 1037/2/3 1129/2/3 1302/2/3 1303/2/3
f 1303/2/3 1078/2/3 1304/2/3 1225/2/3
f 882/2/3 659/2/3 1284/2/3 1300/2/3
f 645/2/3 650/2/3 1296/2/3 646/2/3
f 653/2/3 652/2/3 892/2/3 1301/2/3
f 1063/2/3 892/2/3 1305/2/3 1071/2/3
f 655/2/3 1304/2/3 1306/2/3 626/2/3
f 890/2/3 681/2/3 1083/2/3 629/2/3
f 629/2/3 1082/2/3 1084/2/3 630/2/3
f 678/2/3 677/2/3 1307/2/3 1305/2/3
f 1081/2/3 1091/2/3 1308/2/3 1306/2/3
f 1072/2/3 1307/2/3 688/2/3 1070/2/3
f 888/2/3 1308/2/3 1309/2/3 1228/2/3
f 1094/2/3 1310/2/3 1229/2/3 1309/2/3
f 1092/2/3 1311/2/3 710/2/3 1312/2/3
f 1312/2/3 1244/2/3 1310/2/3 1093/2/3
f 691/2/3 1105/2/3 1106/2/3 1102/2/3
f 686/2/3 1125/2/3 1127/2/3 1313/2/3
f 1313/2/3 1107/2/3 1113/2/3 687/2/3
f 1079/2/3 1302/2/3 1231/2/3 1314/2/3
f 1314/2/3 900/2/3 1311/2/3 1080/2/3
f 720/2/3 1315/2/3 1316/2/3 705/2/3
f 714/2/3 727/2/3 904/2/3 715/2/3
f 707/2/3 1144/2/3 1146/2/3 1317/2/3
f 1317/2/3 1116/2/3 1125/2/3 708/2/3
f 1115/2/3 1318/2/3 1149/2/3 718/2/3
f 718/2/3 1137/2/3 1315/2/3 719/2/3
f 1230/2/3 1319/2/3 1134/2/3 1133/2/3
f 911/2/3 753/2/3 739/2/3 730/2/3
f 733/2/3 1153/2/3 1155/2/3 1320/2/3
f 1320/2/3 1141/2/3 1144/2/3 734/2/3
f 1140/2/3 1321/2/3 779/2/3 1316/2/3
f 1132/2/3 1322/2/3 1171/2/3 1323/2/3
f 1323/2/3 1147/2/3 1318/2/3 1324/2/3
f 1325/2/3 1232/2/3 758/2/3 740/2/3
f 743/2/3 1326/2/3 1165/2/3 1327/2/3
f 1327/2/3 1150/2/3 1153/2/3 744/2/3
f 1328/2/3 1158/2/3 1329/2/3 750/2/3
f 1249/2/3 779/2/3 782/2/3 723/2/3
f 1330/2/3 1233/2/3 1331/2/3 1332/2/3
f 1332/2/3 1162/2/3 1326/2/3 759/2/3
f 1161/2/3 1160/2/3 763/2/3 1329/2/3
f 1148/2/3 1176/2/3 1333/2/3 1334/2/3
f 1334/2/3 775/2/3 1321/2/3 1139/2/3
f 763/2/3 1168/2/3 1322/2/3 764/2/3
f 1335/2/3 1235/2/3 1336/2/3 1331/2/3
f 1163/2/3 1336/2/3 1337/2/3 1164/2/3
f 776/2/3 1333/2/3 1338/2/3 780/2/3
f 1339/2/3 1340/2/3 1203/2/3 1337/2/3
f 1179/2/3 1182/2/3 1341/2/3 1338/2/3
f 1342/2/3 1341/2/3 1343/2/3 792/2/3
f 1185/2/3 1189/2/3 1344/2/3 1343/2/3
f 1345/2/3 1344/2/3 1346/2/3 799/2/3
f 1191/2/3 1197/2/3 1347/2/3 1346/2/3
f 1348/2/3 1347/2/3 1349/2/3 1250/2/3
f 1234/2/3 1213/2/3 1215/2/3 1350/2/3
f 1350/2/3 1201/2/3 1340/2/3 1351/2/3
f 1200/2/3 1207/2/3 1352/2/3 1349/2/3
f 1353/2/3 1352/2/3 1354/2/3 1195/2/3
f 1236/2/3 1355/2/3 1219/2/3 1356/2/3
f 1356/2/3 1210/2/3 1213/2/3 1357/2/3
f 1209/2/3 1208/2/3 1237/2/3 1354/2/3
f 1237/2/3 1217/2/3 1355/2/3 1358/2/3
f 1220/4/3 987/4/3 1221/4/3 1253/4/3
f 1257/4/3 548/4/3 551/4/3 987/4/3
f 1221/4/3 998/4/3 1223/4/3 1259/4/3
f 1263/4/3 559/4/3 549/4/3 548/4/3
f 1238/4/3 554/4/3 565/4/3 998/4/3
f 1223/4/3 1222/4/3 1276/4/3 1265/4/3
f 1268/4/3 573/4/3 576/4/3 559/4/3
f 1271/4/3 592/4/3 574/4/3 573/4/3
f 868/4/3 583/4/3 999/4/3 564/4/3
f 591/4/3 590/4/3 593/4/3 592/4/3
f 1015/4/3 597/4/3 1031/4/3 1030/4/3
f 999/4/3 1224/4/3 1283/4/3 1222/4/3
f 1026/4/3 611/4/3 614/4/3 1013/4/3
f 1031/4/3 1226/4/3 1289/4/3 1224/4/3
f 607/4/3 1054/4/3 1057/4/3 603/4/3
f 1239/4/3 1294/4/3 633/4/3 611/4/3
f 615/4/3 880/4/3 1298/4/3 1226/4/3
f 1057/4/3 1056/4/3 1065/4/3 1293/4/3
f 633/4/3 1060/4/3 645/4/3 619/4/3
f 621/4/3 637/4/3 638/4/3 622/4/3
f 636/4/3 1073/4/3 1066/4/3 637/4/3
f 638/4/3 1067/4/3 651/4/3 639/4/3
f 671/4/3 670/4/3 1228/4/3 887/4/3
f 662/4/3 896/4/3 672/4/3 650/4/3
f 674/4/3 673/4/3 1074/4/3 1073/4/3
f 1066/4/3 1075/4/3 1076/4/3 1067/4/3
f 651/4/3 1077/4/3 891/4/3 652/4/3
f 1228/4/3 1229/4/3 690/4/3 893/4/3
f 672/4/3 1095/4/3 1085/4/3 673/4/3
f 1074/4/3 1086/4/3 1087/4/3 1075/4/3
f 1076/4/3 1088/4/3 1089/4/3 1077/4/3
f 891/4/3 1090/4/3 1101/4/3 677/4/3
f 1245/4/3 711/4/3 901/4/3 1229/4/3
f 701/4/3 1246/4/3 714/4/3 897/4/3
f 1114/4/3 1132/4/3 1324/4/3 1115/4/3
f 1136/4/3 1135/4/3 752/4/3 727/4/3
f 1131/4/3 750/4/3 765/4/3 1132/4/3
f 1319/4/3 723/4/3 761/4/3 1135/4/3
f 753/4/3 771/4/3 1232/4/3 1325/4/3
f 761/4/3 768/4/3 914/4/3 757/4/3
f 1232/4/3 1166/4/3 1233/4/3 1330/4/3
f 778/4/3 777/4/3 780/4/3 779/4/3
f 1156/4/3 790/4/3 922/4/3 1166/4/3
f 1233/4/3 1172/4/3 1235/4/3 1335/4/3
f 780/4/3 1342/4/3 792/4/3 781/4/3
f 925/4/3 797/4/3 805/4/3 1172/4/3
f 1235/4/3 1234/4/3 1351/4/3 1339/4/3
f 792/4/3 1345/4/3 799/4/3 793/4/3
f 799/4/3 1348/4/3 1250/4/3 800/4/3
f 935/4/3 820/4/3 1173/4/3 804/4/3
f 1250/4/3 1353/4/3 1195/4/3 817/4/3
f 1173/4/3 1236/4/3 1357/4/3 1234/4/3
f 1195/4/3 1237/4/3 1358/4/3 1236/4/3
f 856/9/3 184/9/3 546/9/3 857/9/3
f 1359/9/3 871/9/3 872/9/3 577/9/3
f 1242/9/3 654/9/3 656/9/3 624/9/3
f 889/9/3 893/9/3 680/9/3 679/9/3
f 909/9/3 912/9/3 913/9/3 746/9/3
f 736/9/3 1328/9/3 749/9/3 748/9/3
f 915/9/3 295/9/3 294/9/3 784/9/3
f 928/9/3 315/9/3 314/9/3 807/9/3
f 203/5/3 1359/5/3 577/5/3 204/5/3
f 680/10/3 894/10/3 692/10/3 681/10/3
f 697/10/3 700/10/3 702/10/3 698/10/3
f 1247/10/3 1136/10/3 726/10/3 1248/10/3
f 1/11/4 4/11/4 1360/11/4 1361/11/4
f 1360/11/4 1362/11/4 1363/11/4 1364/11/4
f 37/11/4 69/11/4 1365/11/4 1366/11/4
f 1367/11/4 1366/11/4 1368/11/4 95/11/4
f 1369/11/4 1370/11/4 82/11/4 1371/11/4
f 73/11/4 95/11/4 1372/11/4 1373/11/4
f 85/11/4 97/11/4 106/11/4 1374/11/4
f 1375/11/4 1373/11/4 1376/11/4 1377/11/4
f 1378/11/4 1379/11/4 1374/11/4 1380/11/4
f 101/11/4 117/11/4 1381/11/4 1382/11/4
f 1383/11/4 1384/11/4 126/11/4 1385/11/4
f 121/11/4 137/11/4 1386/11/4 1387/11/4
f 1388/11/4 1389/11/4 1387/11/4 155/11/4
f 1390/11/4 1391/11/4 146/11/4 1392/11/4
f 141/11/4 155/11/4 1393/11/4 1394/11/4
f 149/11/4 157/11/4 166/11/4 1395/11/4
f 1396/11/4 1397/11/4 1394/11/4 177/11/4
f 161/11/4 177/11/4 1398/11/4 1399/11/4
f 1400/11/4 1401/11/4 1402/11/4 1403/11/4
f 1404/11/4 1405/11/4 1406/11/4 1407/11/4
f 1408/11/4 1409/11/4 188/11/4 1410/11/4
f 1411/11/4 1403/11/4 1412/11/4 1413/11/4
f 1414/11/4 1415/11/4 1416/11/4 1417/11/4
f 1418/11/4 1419/11/4 1420/11/4 1421/11/4
f 1422/11/4 1412/11/4 1423/11/4 1424/11/4
f 1425/11/4 1426/11/4 1427/11/4 1428/11/4
f 1429/11/4 1430/11/4 1431/11/4 1432/11/4
f 1433/11/4 1434/11/4 1435/11/4 1436/11/4
f 1437/11/4 1438/11/4 236/11/4 1439/11/4
f 1440/11/4 1441/11/4 1442/11/4 1443/11/4
f 1444/11/4 1428/11/4 1445/11/4 1446/11/4
f 1447/11/4 1448/11/4 1449/11/4 1450/11/4
f 218/11/4 221/11/4 1451/11/4 1452/11/4
f 1453/11/4 1454/11/4 1455/11/4 1456/11/4
f 228/11/4 231/11/4 248/11/4 1457/11/4
f 1458/11/4 1459/11/4 1456/11/4 1460/11/4
f 1461/11/4 1462/11/4 1463/11/4 1464/11/4
f 1465/11/4 1466/11/4 1467/11/4 1468/11/4
f 1469/11/4 1468/11/4 1470/11/4 1471/11/4
f 1472/11/4 1473/11/4 1474/11/4 1475/11/4
f 1476/11/4 1477/11/4 1478/11/4 1479/11/4
f 1480/11/4 1481/11/4 1482/11/4 1483/11/4
f 1484/11/4 1485/11/4 1471/11/4 1486/11/4
f 1487/11/4 1475/11/4 1488/11/4 1489/11/4
f 1474/11/4 1490/11/4 1491/11/4 1492/11/4
f 1493/11/4 1451/11/4 1494/11/4 1495/11/4
f 1496/11/4 1497/11/4 1498/11/4 1499/11/4
f 1500/11/4 1499/11/4 1501/11/4 1502/11/4
f 1491/11/4 1503/11/4 1504/11/4 1505/11/4
f 248/11/4 251/11/4 267/11/4 266/11/4
f 1506/11/4 1507/11/4 1479/11/4 1508/11/4
f 1509/11/4 1510/11/4 1511/11/4 1512/11/4
f 1513/11/4 1514/11/4 1502/11/4 1515/11/4
f 1516/11/4 1517/11/4 1518/11/4 1519/11/4
f 1520/11/4 1521/11/4 1522/11/4 1523/11/4
f 1501/11/4 1524/11/4 1525/11/4 1526/11/4
f 1527/11/4 1528/11/4 1529/11/4 1530/11/4
f 1531/11/4 1532/11/4 1533/11/4 1534/11/4
f 1535/11/4 1536/11/4 1530/11/4 1537/11/4
f 1529/11/4 1538/11/4 1539/11/4 1540/11/4
f 1541/11/4 1542/11/4 1543/11/4 1544/11/4
f 1545/11/4 1546/11/4 1547/11/4 1548/11/4
f 1546/11/4 1549/11/4 1550/11/4 1551/11/4
f 1552/11/4 1553/11/4 1554/11/4 1547/11/4
f 1555/11/4 1543/11/4 1556/11/4 1557/11/4
f 1558/11/4 1540/11/4 1559/11/4 1560/11/4
f 1561/11/4 1562/11/4 1563/11/4 1564/11/4
f 1565/11/4 1566/11/4 1567/11/4 1568/11/4
f 1569/11/4 1570/11/4 1571/11/4 1572/11/4
f 1573/11/4 1574/11/4 1575/11/4 1576/11/4
f 1577/11/4 1568/11/4 1578/11/4 1579/11/4
f 1580/11/4 1581/11/4 1582/11/4 1583/11/4
f 1584/11/4 1560/11/4 1585/11/4 1586/11/4
f 1587/11/4 1588/11/4 1589/11/4 1590/11/4
f 1582/11/4 1591/11/4 1592/11/4 1593/11/4
f 1594/11/4 1586/11/4 1595/11/4 1596/11/4
f 1597/11/4 266/11/4 283/11/4 282/11/4
f 1598/11/4 1599/11/4 276/11/4 273/11/4
f 1600/11/4 1589/11/4 1601/11/4 1602/11/4
f 1603/11/4 1604/11/4 1605/11/4 1606/11/4
f 1607/11/4 1606/11/4 1608/11/4 1609/11/4
f 1592/11/4 1596/11/4 1610/11/4 1611/11/4
f 1612/11/4 1613/11/4 1609/11/4 1614/11/4
f 1601/11/4 1615/11/4 1616/11/4 1617/11/4
f 1618/11/4 1614/11/4 1619/11/4 1620/11/4
f 1608/11/4 1621/11/4 1622/11/4 1623/11/4
f 1624/11/4 1622/11/4 1625/11/4 1626/11/4
f 1627/11/4 1628/11/4 1629/11/4 1630/11/4
f 1631/11/4 1632/11/4 1633/11/4 1634/11/4
f 1635/11/4 282/11/4 303/11/4 302/11/4
f 1636/11/4 1637/11/4 1638/11/4 1639/11/4
f 1640/11/4 1641/11/4 1642/11/4 1643/11/4
f 1633/11/4 1644/11/4 1645/11/4 1646/11/4
f 1647/11/4 1648/11/4 1649/11/4 1650/11/4
f 1645/11/4 1651/11/4 1652/11/4 1653/11/4
f 1654/11/4 1655/11/4 1656/11/4 1657/11/4
f 1658/11/4 302/11/4 323/11/4 322/11/4
f 1659/11/4 1660/11/4 316/11/4 313/11/4
f 1652/11/4 1661/11/4 1662/11/4 1663/11/4
f 1664/11/4 322/11/4 343/11/4 342/11/4
f 1665/11/4 1666/11/4 336/11/4 333/11/4
f 1667/11/4 1662/11/4 1668/11/4 1669/11/4
f 1670/11/4 1671/11/4 1672/11/4 1673/11/4
f 1674/11/4 1675/11/4 353/11/4 1676/11/4
f 1677/11/4 342/11/4 363/11/4 362/11/4
f 1678/11/4 1679/11/4 1676/11/4 352/11/4
f 1680/11/4 362/11/4 383/11/4 382/11/4
f 1681/11/4 1682/11/4 376/11/4 373/11/4
f 1683/11/4 382/11/4 406/11/4 397/11/4
f 1684/11/4 1685/11/4 400/11/4 393/11/4
f 1686/11/4 1687/11/4 420/11/4 413/11/4
f 1688/11/4 1689/11/4 430/11/4 417/11/4
f 1690/11/4 1691/11/4 441/11/4 440/11/4
f 1692/11/4 1693/11/4 1694/11/4 1695/11/4
f 4/7/4 18/7/4 1696/7/4 1360/7/4
f 1361/7/4 1360/7/4 1364/7/4 69/7/4
f 1362/7/4 1696/7/4 50/7/4 1363/7/4
f 34/7/4 37/7/4 1366/7/4 1367/7/4
f 50/7/4 1697/7/4 1371/7/4 1698/7/4
f 1697/7/4 53/7/4 1370/7/4 1369/7/4
f 70/7/4 1699/7/4 1377/7/4 117/7/4
f 1699/7/4 73/7/4 1373/7/4 1375/7/4
f 82/7/4 85/7/4 1379/7/4 1700/7/4
f 1373/7/4 1372/7/4 1701/7/4 1376/7/4
f 98/7/4 101/7/4 1702/7/4 137/7/4
f 106/7/4 1703/7/4 1385/7/4 1704/7/4
f 1703/7/4 109/7/4 1384/7/4 1383/7/4
f 1382/7/4 1381/7/4 1705/7/4 1702/7/4
f 118/7/4 121/7/4 1389/7/4 1388/7/4
f 126/7/4 1706/7/4 1392/7/4 1707/7/4
f 1706/7/4 129/7/4 1391/7/4 1390/7/4
f 138/7/4 141/7/4 1397/7/4 1396/7/4
f 146/7/4 149/7/4 1395/7/4 1708/7/4
f 158/7/4 161/7/4 1709/7/4 1710/7/4
f 1711/7/4 1712/7/4 1713/7/4 1404/7/4
f 166/7/4 169/7/4 1409/7/4 1714/7/4
f 178/7/4 1715/7/4 1421/7/4 207/7/4
f 1715/7/4 181/7/4 1419/7/4 1418/7/4
f 188/7/4 191/7/4 1716/7/4 1717/7/4
f 1718/7/4 1716/7/4 208/7/4 1719/7/4
f 201/7/4 207/7/4 1430/7/4 1429/7/4
f 1720/7/4 1721/7/4 1434/7/4 1433/7/4
f 208/7/4 1722/7/4 1439/7/4 1723/7/4
f 1722/7/4 211/7/4 1438/7/4 1437/7/4
f 1724/7/4 1725/7/4 1432/7/4 221/7/4
f 1726/7/4 1447/7/4 1450/7/4 1727/7/4
f 1728/7/4 1453/7/4 1459/7/4 1458/7/4
f 236/7/4 228/7/4 1457/7/4 1729/7/4
f 1463/7/4 1469/7/4 1485/7/4 1484/7/4
f 1730/7/4 1480/7/4 1731/7/4 1732/7/4
f 1470/7/4 1733/7/4 1497/7/4 1496/7/4
f 1452/7/4 1493/7/4 1495/7/4 241/7/4
f 238/7/4 241/7/4 253/7/4 252/7/4
f 1734/7/4 1735/7/4 1510/7/4 1509/7/4
f 1736/7/4 1737/7/4 1519/7/4 1524/7/4
f 1737/7/4 1489/7/4 1738/7/4 1516/7/4
f 1739/7/4 1509/7/4 1512/7/4 1740/7/4
f 1478/7/4 1520/7/4 1523/7/4 1741/7/4
f 1511/7/4 1742/7/4 1532/7/4 1743/7/4
f 1504/7/4 1744/7/4 1537/7/4 1745/7/4
f 1744/7/4 1527/7/4 1536/7/4 1535/7/4
f 1746/7/4 1534/7/4 1747/7/4 1541/7/4
f 1748/7/4 1749/7/4 1549/7/4 1545/7/4
f 1544/7/4 1555/7/4 1557/7/4 1570/7/4
f 1750/7/4 1751/7/4 1752/7/4 1565/7/4
f 1753/7/4 1564/7/4 1588/7/4 1587/7/4
f 1754/7/4 1569/7/4 1755/7/4 1756/7/4
f 1567/7/4 1580/7/4 1583/7/4 1757/7/4
f 1758/7/4 1759/7/4 1760/7/4 1761/7/4
f 253/7/4 1762/7/4 1598/7/4 1763/7/4
f 1578/7/4 1764/7/4 1604/7/4 1603/7/4
f 1765/7/4 1766/7/4 273/7/4 272/7/4
f 1623/7/4 1624/7/4 1626/7/4 1767/7/4
f 276/7/4 1768/7/4 1636/7/4 1769/7/4
f 1625/7/4 1770/7/4 1643/7/4 1771/7/4
f 1639/7/4 1638/7/4 296/7/4 293/7/4
f 1642/7/4 1772/7/4 1773/7/4 1774/7/4
f 1775/7/4 1776/7/4 1650/7/4 1777/7/4
f 1776/7/4 1778/7/4 1648/7/4 1647/7/4
f 1779/7/4 1780/7/4 1777/7/4 1773/7/4
f 296/7/4 1781/7/4 1660/7/4 1782/7/4
f 316/7/4 1783/7/4 333/7/4 332/7/4
f 1783/7/4 1784/7/4 1666/7/4 1665/7/4
f 1785/7/4 1786/7/4 1673/7/4 1787/7/4
f 1786/7/4 1788/7/4 1671/7/4 1670/7/4
f 336/7/4 1674/7/4 1679/7/4 1678/7/4
f 353/7/4 1789/7/4 373/7/4 372/7/4
f 376/7/4 1790/7/4 393/7/4 392/7/4
f 1791/7/4 1683/7/4 397/7/4 396/7/4
f 400/7/4 1792/7/4 413/7/4 412/7/4
f 1792/7/4 1793/7/4 1794/7/4 1686/7/4
f 1795/7/4 1796/7/4 417/7/4 416/7/4
f 1797/7/4 396/7/4 1689/7/4 1798/7/4
f 420/7/4 1799/7/4 1691/7/4 1690/7/4
f 1800/7/4 416/7/4 473/7/4 472/7/4
f 441/7/4 1692/7/4 1801/7/4 478/7/4
f 1802/7/4 472/7/4 479/7/4 1803/7/4
f 1695/7/4 1804/7/4 1803/7/4 1801/7/4
f 69/3/4 50/3/4 1698/3/4 1805/3/4
f 95/3/4 1805/3/4 1806/3/4 1701/3/4
f 1698/3/4 82/3/4 1807/3/4 1808/3/4
f 117/3/4 1701/3/4 1809/3/4 1705/3/4
f 1806/3/4 1808/3/4 1810/3/4 1811/3/4
f 1807/3/4 106/3/4 1704/3/4 1812/3/4
f 1813/3/4 1810/3/4 1814/3/4 1815/3/4
f 137/3/4 1705/3/4 1816/3/4 1386/3/4
f 1809/3/4 1817/3/4 1818/3/4 1819/3/4
f 1817/3/4 1820/3/4 1821/3/4 1822/3/4
f 1820/3/4 1823/3/4 1824/3/4 1825/3/4
f 1826/3/4 1812/3/4 1827/3/4 1814/3/4
f 1704/3/4 126/3/4 1707/3/4 1828/3/4
f 1829/3/4 1827/3/4 1830/3/4 1831/3/4
f 155/3/4 1386/3/4 1832/3/4 1393/3/4
f 1816/3/4 1833/3/4 1834/3/4 1835/3/4
f 1833/3/4 1836/3/4 1837/3/4 1838/3/4
f 1836/3/4 1839/3/4 1819/3/4 1840/3/4
f 1841/3/4 1842/3/4 1711/3/4 1401/3/4
f 1843/3/4 1828/3/4 1844/3/4 1845/3/4
f 1707/3/4 146/3/4 1708/3/4 1846/3/4
f 1847/3/4 1830/3/4 1845/3/4 1848/3/4
f 177/3/4 1393/3/4 1849/3/4 1398/3/4
f 1832/3/4 1850/3/4 1835/3/4 1851/3/4
f 1852/3/4 1853/3/4 1854/3/4 1855/3/4
f 1856/3/4 1846/3/4 1857/3/4 1858/3/4
f 1708/3/4 166/3/4 1859/3/4 1860/3/4
f 181/3/4 1398/3/4 1861/3/4 1420/3/4
f 1849/3/4 1862/3/4 1863/3/4 1864/3/4
f 1862/3/4 1865/3/4 1851/3/4 1866/3/4
f 1403/3/4 1402/3/4 1727/3/4 1867/3/4
f 1402/3/4 1868/3/4 1869/3/4 1870/3/4
f 1868/3/4 1406/3/4 1721/3/4 1871/3/4
f 1872/3/4 1860/3/4 1873/3/4 1874/3/4
f 1859/3/4 188/3/4 1875/3/4 1876/3/4
f 207/3/4 1420/3/4 1877/3/4 1431/3/4
f 1861/3/4 1878/3/4 1864/3/4 1879/3/4
f 1426/3/4 1423/3/4 1867/3/4 1880/3/4
f 1881/3/4 1876/3/4 1882/3/4 1873/3/4
f 1875/3/4 208/3/4 1723/3/4 1883/3/4
f 1428/3/4 1427/3/4 1880/3/4 1445/3/4
f 1884/3/4 1435/3/4 1885/3/4 1886/3/4
f 1887/3/4 1888/3/4 1889/3/4 1890/3/4
f 221/3/4 1431/3/4 1891/3/4 1494/3/4
f 1877/3/4 1892/3/4 1893/3/4 1894/3/4
f 1727/3/4 1449/3/4 1895/3/4 1467/3/4
f 1896/3/4 1883/3/4 1897/3/4 1882/3/4
f 1723/3/4 236/3/4 1729/3/4 1898/3/4
f 1899/3/4 1900/3/4 1901/3/4 1902/3/4
f 1903/3/4 1901/3/4 1904/3/4 1905/3/4
f 1906/3/4 1844/3/4 1858/3/4 1907/3/4
f 1908/3/4 1909/3/4 1910/3/4 1911/3/4
f 1912/3/4 1913/3/4 1914/3/4 1915/3/4
f 1916/3/4 1857/3/4 1874/3/4 1917/3/4
f 241/3/4 1494/3/4 1918/3/4 253/3/4
f 1910/3/4 1919/3/4 1740/3/4 1521/3/4
f 1488/3/4 1492/3/4 1920/3/4 1921/3/4
f 1922/3/4 1898/3/4 1923/3/4 1924/3/4
f 1729/3/4 248/3/4 266/3/4 1597/3/4
f 1925/3/4 1897/3/4 1924/3/4 1926/3/4
f 1927/3/4 1921/3/4 1928/3/4 1929/3/4
f 1920/3/4 1505/3/4 1930/3/4 1931/3/4
f 1932/3/4 1933/3/4 1934/3/4 1935/3/4
f 1936/3/4 1937/3/4 1748/3/4 1938/3/4
f 1525/3/4 1929/3/4 1939/3/4 1940/3/4
f 1928/3/4 1931/3/4 1941/3/4 1942/3/4
f 1930/3/4 1745/3/4 1943/3/4 1944/3/4
f 1945/3/4 1946/3/4 1947/3/4 1948/3/4
f 1949/3/4 1940/3/4 1950/3/4 1750/3/4
f 1939/3/4 1942/3/4 1951/3/4 1952/3/4
f 1941/3/4 1944/3/4 1953/3/4 1954/3/4
f 1943/3/4 1955/3/4 1540/3/4 1558/3/4
f 1956/3/4 1548/3/4 1574/3/4 1573/3/4
f 1950/3/4 1952/3/4 1581/3/4 1567/3/4
f 1951/3/4 1954/3/4 1957/3/4 1958/3/4
f 1953/3/4 1558/3/4 1560/3/4 1584/3/4
f 1959/3/4 1960/3/4 1573/3/4 1556/3/4
f 1961/3/4 1962/3/4 1963/3/4 1964/3/4
f 1962/3/4 1965/3/4 1966/3/4 1967/3/4
f 1563/3/4 1754/3/4 1968/3/4 1969/3/4
f 1581/3/4 1958/3/4 1591/3/4 1582/3/4
f 1957/3/4 1584/3/4 1586/3/4 1594/3/4
f 1970/3/4 1971/3/4 1972/3/4 1973/3/4
f 1971/3/4 1974/3/4 1975/3/4 1976/3/4
f 1974/3/4 1977/3/4 1978/3/4 1979/3/4
f 1977/3/4 1980/3/4 1964/3/4 1981/3/4
f 1918/3/4 1982/3/4 1983/3/4 276/3/4
f 1984/3/4 1969/3/4 1985/3/4 1986/3/4
f 1987/3/4 1988/3/4 1989/3/4 1990/3/4
f 1591/3/4 1594/3/4 1596/3/4 1592/3/4
f 1966/3/4 1597/3/4 282/3/4 1635/3/4
f 1991/3/4 1992/3/4 1993/3/4 1994/3/4
f 1995/3/4 1996/3/4 1997/3/4 1998/3/4
f 1996/3/4 1999/3/4 1973/3/4 2000/3/4
f 2001/3/4 2002/3/4 1994/3/4 2003/3/4
f 2004/3/4 2005/3/4 2006/3/4 2007/3/4
f 2005/3/4 2008/3/4 1998/3/4 2009/3/4
f 1621/3/4 2010/3/4 2011/3/4 1625/3/4
f 2012/3/4 2013/3/4 2014/3/4 2015/3/4
f 2016/3/4 2017/3/4 2018/3/4 2019/3/4
f 1983/3/4 2015/3/4 1781/3/4 296/3/4
f 1632/3/4 1625/3/4 1771/3/4 1633/3/4
f 2020/3/4 2021/3/4 1778/3/4 1775/3/4
f 1963/3/4 1635/3/4 302/3/4 1658/3/4
f 2022/3/4 2023/3/4 2024/3/4 2025/3/4
f 1644/3/4 1642/3/4 1774/3/4 1645/3/4
f 2026/3/4 2027/3/4 2028/3/4 2029/3/4
f 2030/3/4 2031/3/4 2032/3/4 2033/3/4
f 1781/3/4 2025/3/4 1784/3/4 316/3/4
f 2034/3/4 2024/3/4 2033/3/4 2035/3/4
f 1651/3/4 1649/3/4 1788/3/4 1652/3/4
f 1978/3/4 1658/3/4 322/3/4 1664/3/4
f 2036/3/4 2037/3/4 2038/3/4 2039/3/4
f 1784/3/4 2035/3/4 1675/3/4 336/3/4
f 2040/3/4 2032/3/4 2041/3/4 2042/3/4
f 1975/3/4 1664/3/4 342/3/4 1677/3/4
f 2043/3/4 2044/3/4 2045/3/4 2038/3/4
f 1675/3/4 2042/3/4 2046/3/4 353/3/4
f 2047/3/4 2041/3/4 2039/3/4 2048/3/4
f 1668/3/4 1787/3/4 2049/3/4 2050/3/4
f 1972/3/4 1677/3/4 362/3/4 1680/3/4
f 2051/3/4 2052/3/4 2053/3/4 2054/3/4
f 2055/3/4 2056/3/4 2007/3/4 2057/3/4
f 2046/3/4 2048/3/4 2058/3/4 376/3/4
f 2059/3/4 2045/3/4 2054/3/4 2060/3/4
f 1997/3/4 1680/3/4 382/3/4 1791/3/4
f 2061/3/4 2062/3/4 2063/3/4 2053/3/4
f 2064/3/4 2065/3/4 2066/3/4 2067/3/4
f 2065/3/4 2068/3/4 2057/3/4 2069/3/4
f 2058/3/4 2060/3/4 2070/3/4 400/3/4
f 2006/3/4 1791/3/4 396/3/4 1795/3/4
f 2071/3/4 2072/3/4 2067/3/4 2073/3/4
f 2070/3/4 2073/3/4 1799/3/4 420/3/4
f 2066/3/4 1795/3/4 416/3/4 1800/3/4
f 1799/3/4 1800/3/4 472/3/4 441/3/4
f 1366/8/4 1365/8/4 1805/8/4 1368/8/4
f 1517/8/4 1738/8/4 1927/8/4 1518/8/4
f 1805/1/4 1698/1/4 1808/1/4 1806/1/4
f 1701/1/4 1806/1/4 2074/1/4 1809/1/4
f 1808/1/4 1807/1/4 1812/1/4 1826/1/4
f 1705/1/4 1809/1/4 1839/1/4 1816/1/4
f 1812/1/4 1704/1/4 1828/1/4 1843/1/4
f 1386/1/4 1816/1/4 1850/1/4 1832/1/4
f 1842/1/4 2075/1/4 1852/1/4 1711/1/4
f 1828/1/4 1707/1/4 1846/1/4 1856/1/4
f 1393/1/4 1832/1/4 1865/1/4 1849/1/4
f 1401/1/4 1711/1/4 1407/1/4 1402/1/4
f 1853/1/4 2076/1/4 2077/1/4 1854/1/4
f 1846/1/4 1708/1/4 1860/1/4 1872/1/4
f 1398/1/4 1849/1/4 1878/1/4 1861/1/4
f 1860/1/4 1859/1/4 1876/1/4 1881/1/4
f 1420/1/4 1861/1/4 1728/1/4 1877/1/4
f 1876/1/4 1875/1/4 1883/1/4 1896/1/4
f 1435/1/4 1855/1/4 2078/1/4 1885/1/4
f 1431/1/4 1877/1/4 2079/1/4 1891/1/4
f 1449/1/4 1886/1/4 2080/1/4 1895/1/4
f 1883/1/4 1723/1/4 1898/1/4 1922/1/4
f 1468/1/4 1467/1/4 1733/1/4 1470/1/4
f 1494/1/4 1891/1/4 1982/1/4 1918/1/4
f 1911/1/4 1910/1/4 1521/1/4 1478/1/4
f 2081/1/4 1914/1/4 1749/1/4 1748/1/4
f 1898/1/4 1729/1/4 1597/1/4 1966/1/4
f 1740/1/4 1511/1/4 1746/1/4 2082/1/4
f 1533/1/4 1748/1/4 1548/1/4 1543/1/4
f 1749/1/4 1526/1/4 1750/1/4 1554/1/4
f 1940/1/4 1939/1/4 1952/1/4 1950/1/4
f 1942/1/4 1941/1/4 1954/1/4 1951/1/4
f 1944/1/4 1943/1/4 1558/1/4 1953/1/4
f 2083/1/4 1544/1/4 1570/1/4 1754/1/4
f 1548/1/4 1554/1/4 1988/1/4 2084/1/4
f 1952/1/4 1951/1/4 1958/1/4 1581/1/4
f 1954/1/4 1953/1/4 1584/1/4 1957/1/4
f 1564/1/4 1563/1/4 1969/1/4 1984/1/4
f 1958/1/4 1957/1/4 1594/1/4 1591/1/4
f 1982/1/4 2085/1/4 2015/1/4 1983/1/4
f 1967/1/4 1966/1/4 1635/1/4 1963/1/4
f 1606/1/4 1605/1/4 1621/1/4 1608/1/4
f 2010/1/4 2086/1/4 2020/1/4 2011/1/4
f 2015/1/4 1617/1/4 2025/1/4 1781/1/4
f 2021/1/4 2087/1/4 2026/1/4 1778/1/4
f 1981/1/4 1963/1/4 1658/1/4 1978/1/4
f 2027/1/4 2088/1/4 2089/1/4 2028/1/4
f 2025/1/4 2034/1/4 2035/1/4 1784/1/4
f 1979/1/4 1978/1/4 1664/1/4 1975/1/4
f 2035/1/4 2040/1/4 2042/1/4 1675/1/4
f 1661/1/4 1785/1/4 1787/1/4 1668/1/4
f 1976/1/4 1975/1/4 1677/1/4 1972/1/4
f 2042/1/4 2047/1/4 2048/1/4 2046/1/4
f 1787/1/4 2029/1/4 2090/1/4 2049/1/4
f 2000/1/4 1972/1/4 1680/1/4 1997/1/4
f 2048/1/4 2059/1/4 2060/1/4 2058/1/4
f 2009/1/4 1997/1/4 1791/1/4 2006/1/4
f 2060/1/4 2091/1/4 2073/1/4 2070/1/4
f 2069/1/4 2006/1/4 1795/1/4 2066/1/4
f 2073/1/4 2066/1/4 1800/1/4 1799/1/4
f 1700/6/4 1378/6/4 1380/6/4 1807/6/4
f 1712/6/4 2092/6/4 1405/6/4 1713/6/4
f 1714/6/4 1408/6/4 1410/6/4 1859/6/4
f 1406/6/4 1414/6/4 1417/6/4 1721/6/4
f 1413/6/4 1422/6/4 1424/6/4 1426/6/4
f 1717/6/4 1718/6/4 1719/6/4 1875/6/4
f 1871/6/4 1720/6/4 1436/6/4 1869/6/4
f 1870/6/4 1869/6/4 1448/6/4 1726/6/4
f 1445/6/4 2093/6/4 1464/6/4 2094/6/4
f 2093/6/4 1880/6/4 1462/6/4 1461/6/4
f 1867/6/4 1727/6/4 1466/6/4 1465/6/4
f 2095/6/4 1460/6/4 1477/6/4 2096/6/4
f 2097/6/4 2094/6/4 1481/6/4 1730/6/4
f 1919/6/4 1734/6/4 1509/6/4 1739/6/4
f 1732/6/4 1731/6/4 1483/6/4 1742/6/4
f 1914/6/4 1500/6/4 1514/6/4 1513/6/4
f 2098/6/4 2099/6/4 1562/6/4 1561/6/4
f 1751/6/4 1950/6/4 1566/6/4 1752/6/4
f 1556/6/4 1573/6/4 1759/6/4 1758/6/4
f 2100/6/4 1577/6/4 2101/6/4 2102/6/4
f 1756/6/4 1755/6/4 1572/6/4 1968/6/4
f 1762/6/4 1918/6/4 1599/6/4 1598/6/4
f 1989/6/4 1607/6/4 1613/6/4 1612/6/4
f 1761/6/4 1760/6/4 1576/6/4 2103/6/4
f 1575/6/4 1618/6/4 1620/6/4 1632/6/4
f 1768/6/4 1983/6/4 1637/6/4 1636/6/4
f 1770/6/4 2011/6/4 1641/6/4 1640/6/4
f 1772/6/4 1775/6/4 1780/6/4 1779/6/4
f 1649/6/4 1654/6/4 1657/6/4 1788/6/4
f 1663/6/4 1667/6/4 1669/6/4 2104/6/4
f 1789/6/4 2046/6/4 1682/6/4 1681/6/4
f 1790/6/4 2058/6/4 1685/6/4 1684/6/4
f 1793/6/4 2070/6/4 1687/6/4 1794/6/4
f 1796/6/4 1797/6/4 1798/6/4 1688/6/4
f 1693/6/4 1802/6/4 1804/6/4 1694/6/4
f 1811/2/4 1813/2/4 2105/2/4 2074/2/4
f 1823/2/4 2074/2/4 1841/2/4 2106/2/4
f 2107/2/4 2105/2/4 2108/2/4 2075/2/4
f 1825/2/4 2109/2/4 1400/2/4 2110/2/4
f 2109/2/4 1824/2/4 2106/2/4 2111/2/4
f 1815/2/4 1829/2/4 2112/2/4 2108/2/4
f 2113/2/4 2112/2/4 2114/2/4 2076/2/4
f 1822/2/4 2115/2/4 1411/2/4 2116/2/4
f 2115/2/4 1821/2/4 2110/2/4 2117/2/4
f 1831/2/4 1847/2/4 2118/2/4 2114/2/4
f 2119/2/4 2118/2/4 1888/2/4 2120/2/4
f 1840/2/4 1819/2/4 1425/2/4 2121/2/4
f 1819/2/4 1818/2/4 2116/2/4 2122/2/4
f 1838/2/4 2123/2/4 1444/2/4 2124/2/4
f 2123/2/4 1837/2/4 2121/2/4 2125/2/4
f 1866/2/4 1851/2/4 2126/2/4 1899/2/4
f 1851/2/4 1834/2/4 2124/2/4 1440/2/4
f 2077/2/4 2127/2/4 2128/2/4 2129/2/4
f 2127/2/4 2130/2/4 2120/2/4 1887/2/4
f 1879/2/4 1863/2/4 2131/2/4 1728/2/4
f 1892/2/4 1728/2/4 1460/2/4 2132/2/4
f 1454/2/4 2131/2/4 2133/2/4 1909/2/4
f 1443/2/4 1445/2/4 2134/2/4 2126/2/4
f 2078/2/4 2135/2/4 1475/2/4 2136/2/4
f 2135/2/4 2137/2/4 2129/2/4 1472/2/4
f 1894/2/4 1893/2/4 2132/2/4 2095/2/4
f 1900/2/4 2138/2/4 1742/2/4 2139/2/4
f 2138/2/4 2134/2/4 2094/2/4 2097/2/4
f 1890/2/4 1889/2/4 2140/2/4 2128/2/4
f 2080/2/4 2141/2/4 1489/2/4 2142/2/4
f 2141/2/4 2143/2/4 2136/2/4 1487/2/4
f 1473/2/4 2140/2/4 2144/2/4 1474/2/4
f 1902/2/4 1903/2/4 2145/2/4 2133/2/4
f 1848/2/4 1906/2/4 2146/2/4 2144/2/4
f 2147/2/4 2145/2/4 1734/2/4 1919/2/4
f 2148/2/4 2149/2/4 1915/2/4 2081/2/4
f 2149/2/4 1486/2/4 1913/2/4 1912/2/4
f 1733/2/4 2150/2/4 1524/2/4 2151/2/4
f 2150/2/4 2152/2/4 2142/2/4 1736/2/4
f 1490/2/4 2146/2/4 2153/2/4 1491/2/4
f 1905/2/4 1904/2/4 2154/2/4 1734/2/4
f 1907/2/4 1916/2/4 2155/2/4 2153/2/4
f 1891/2/4 2156/2/4 2157/2/4 1982/2/4
f 2156/2/4 2079/2/4 2158/2/4 1932/2/4
f 1735/2/4 2154/2/4 2139/2/4 1511/2/4
f 1499/2/4 1498/2/4 2151/2/4 1501/2/4
f 1503/2/4 2155/2/4 1744/2/4 1504/2/4
f 1917/2/4 1925/2/4 2159/2/4 1744/2/4
f 1508/2/4 1478/2/4 2160/2/4 2158/2/4
f 1742/2/4 1483/2/4 1938/2/4 1533/2/4
f 1483/2/4 1482/2/4 1937/2/4 1936/2/4
f 1528/2/4 2159/2/4 2161/2/4 1529/2/4
f 1933/2/4 2160/2/4 2162/2/4 1945/2/4
f 1926/2/4 1923/2/4 1538/2/4 2161/2/4
f 1741/2/4 2082/2/4 2163/2/4 2162/2/4
f 1946/2/4 2163/2/4 2083/2/4 2164/2/4
f 1948/2/4 2165/2/4 1564/2/4 2166/2/4
f 2165/2/4 1947/2/4 2164/2/4 2098/2/4
f 1543/2/4 1956/2/4 1960/2/4 1959/2/4
f 1540/2/4 2167/2/4 1980/2/4 1977/2/4
f 2167/2/4 1539/2/4 1965/2/4 1961/2/4
f 1935/2/4 2168/2/4 2085/2/4 2157/2/4
f 2168/2/4 1934/2/4 2166/2/4 1753/2/4
f 1570/2/4 1556/2/4 2169/2/4 2170/2/4
f 1568/2/4 1567/2/4 1757/2/4 1578/2/4
f 1560/2/4 2171/2/4 1999/2/4 1996/2/4
f 2171/2/4 1559/2/4 1977/2/4 1970/2/4
f 1968/2/4 1572/2/4 2002/2/4 2172/2/4
f 1572/2/4 1571/2/4 2170/2/4 1991/2/4
f 2084/2/4 1987/2/4 1990/2/4 2173/2/4
f 1764/2/4 1582/2/4 1593/2/4 1605/2/4
f 1586/2/4 2174/2/4 2008/2/4 2005/2/4
f 2174/2/4 1585/2/4 1996/2/4 1995/2/4
f 1992/2/4 2169/2/4 1631/2/4 2175/2/4
f 1985/2/4 2176/2/4 2023/2/4 2177/2/4
f 2176/2/4 2178/2/4 2172/2/4 2001/2/4
f 2179/2/4 1592/2/4 1611/2/4 2086/2/4
f 1596/2/4 2180/2/4 2017/2/4 2181/2/4
f 2180/2/4 1595/2/4 2005/2/4 2004/2/4
f 2182/2/4 1601/2/4 2183/2/4 2012/2/4
f 2103/2/4 1575/2/4 1632/2/4 1631/2/4
f 2184/2/4 2185/2/4 2186/2/4 2087/2/4
f 2185/2/4 1610/2/4 2181/2/4 2016/2/4
f 2013/2/4 2183/2/4 1617/2/4 2014/2/4
f 2003/2/4 2187/2/4 2188/2/4 2030/2/4
f 2187/2/4 1993/2/4 2175/2/4 1627/2/4
f 1617/2/4 1616/2/4 2177/2/4 2022/2/4
f 2189/2/4 2186/2/4 2190/2/4 2088/2/4
f 2019/2/4 2018/2/4 2191/2/4 2190/2/4
f 1630/2/4 1634/2/4 2192/2/4 2188/2/4
f 2193/2/4 2191/2/4 2056/2/4 2194/2/4
f 2031/2/4 2192/2/4 2195/2/4 2036/2/4
f 2196/2/4 1646/2/4 2197/2/4 2195/2/4
f 2037/2/4 2197/2/4 2198/2/4 2043/2/4
f 2199/2/4 1653/2/4 2200/2/4 2198/2/4
f 2044/2/4 2200/2/4 2201/2/4 2051/2/4
f 2202/2/4 2104/2/4 2203/2/4 2201/2/4
f 2089/2/4 2204/2/4 2068/2/4 2065/2/4
f 2204/2/4 2205/2/4 2194/2/4 2055/2/4
f 2052/2/4 2203/2/4 2206/2/4 2061/2/4
f 2207/2/4 2050/2/4 2208/2/4 2206/2/4
f 2090/2/4 2209/2/4 2072/2/4 2210/2/4
f 2209/2/4 2211/2/4 2065/2/4 2064/2/4
f 2062/2/4 2208/2/4 2091/2/4 2063/2/4
f 2091/2/4 2212/2/4 2210/2/4 2071/2/4
f 2074/4/4 2107/4/4 2075/4/4 1841/4/4
f 2111/4/4 1841/4/4 1401/4/4 1400/4/4
f 2075/4/4 2113/4/4 2076/4/4 1852/4/4
f 2117/4/4 1400/4/4 1403/4/4 1411/4/4
f 2092/4/4 1852/4/4 1415/4/4 1406/4/4
f 2076/4/4 2119/4/4 2130/4/4 2077/4/4
f 2122/4/4 1411/4/4 1426/4/4 1425/4/4
f 2125/4/4 1425/4/4 1428/4/4 1444/4/4
f 1721/4/4 1416/4/4 1855/4/4 1435/4/4
f 1441/4/4 1444/4/4 1446/4/4 1442/4/4
f 1869/4/4 1884/4/4 1886/4/4 1449/4/4
f 1855/4/4 2077/4/4 2137/4/4 2078/4/4
f 1880/4/4 1867/4/4 1468/4/4 1463/4/4
f 1886/4/4 2078/4/4 2143/4/4 2080/4/4
f 1460/4/4 1455/4/4 1909/4/4 1908/4/4
f 2094/4/4 1463/4/4 1486/4/4 2148/4/4
f 1467/4/4 2080/4/4 2152/4/4 1733/4/4
f 1909/4/4 2147/4/4 1919/4/4 1910/4/4
f 1486/4/4 1470/4/4 1499/4/4 1914/4/4
f 1475/4/4 1474/4/4 1492/4/4 1488/4/4
f 1489/4/4 1488/4/4 1921/4/4 1927/4/4
f 1492/4/4 1491/4/4 1505/4/4 1920/4/4
f 1521/4/4 1740/4/4 2082/4/4 1522/4/4
f 1515/4/4 1501/4/4 1526/4/4 1749/4/4
f 1524/4/4 1927/4/4 1929/4/4 1525/4/4
f 1921/4/4 1920/4/4 1931/4/4 1928/4/4
f 1505/4/4 1504/4/4 1745/4/4 1930/4/4
f 2082/4/4 1746/4/4 1544/4/4 2083/4/4
f 1526/4/4 1525/4/4 1940/4/4 1949/4/4
f 1929/4/4 1928/4/4 1942/4/4 1939/4/4
f 1931/4/4 1930/4/4 1944/4/4 1941/4/4
f 1745/4/4 1529/4/4 1955/4/4 1943/4/4
f 2099/4/4 2083/4/4 1754/4/4 1563/4/4
f 1554/4/4 1750/4/4 1568/4/4 2100/4/4
f 1969/4/4 1968/4/4 2178/4/4 1985/4/4
f 1988/4/4 1578/4/4 1606/4/4 1989/4/4
f 1986/4/4 1985/4/4 1615/4/4 1601/4/4
f 2173/4/4 1989/4/4 1614/4/4 1575/4/4
f 1605/4/4 2179/4/4 2086/4/4 1621/4/4
f 1614/4/4 1608/4/4 1767/4/4 1619/4/4
f 2086/4/4 2184/4/4 2087/4/4 2020/4/4
f 1628/4/4 1631/4/4 1634/4/4 1629/4/4
f 2011/4/4 2020/4/4 1775/4/4 1642/4/4
f 2087/4/4 2189/4/4 2088/4/4 2026/4/4
f 1634/4/4 1633/4/4 1646/4/4 2196/4/4
f 1778/4/4 2026/4/4 1655/4/4 1649/4/4
f 2088/4/4 2193/4/4 2205/4/4 2089/4/4
f 1646/4/4 1645/4/4 1653/4/4 2199/4/4
f 1653/4/4 1652/4/4 2104/4/4 2202/4/4
f 1788/4/4 1656/4/4 2029/4/4 1672/4/4
f 2104/4/4 1668/4/4 2050/4/4 2207/4/4
f 2029/4/4 2089/4/4 2211/4/4 2090/4/4
f 2050/4/4 2090/4/4 2212/4/4 2091/4/4
f 1710/9/4 1709/9/4 1399/9/4 181/9/4
f 2213/9/4 1429/9/4 1725/9/4 1724/9/4
f 2096/9/4 1476/9/4 1507/9/4 1506/9/4
f 1743/9/4 1531/9/4 1534/9/4 1746/9/4
f 1763/9/4 1598/9/4 1766/9/4 1765/9/4
f 1590/9/4 1600/9/4 1602/9/4 2182/9/4
f 1769/9/4 1636/9/4 293/9/4 292/9/4
f 1782/9/4 1659/9/4 313/9/4 312/9/4
f 198/5/4 201/5/4 1429/5/4 2213/5/4
f 1534/10/4 1533/10/4 1542/10/4 1747/10/4
f 1551/10/4 1550/10/4 1553/10/4 1552/10/4
f 2102/10/4 2101/10/4 1579/10/4 1988/10/4
f 238/7/5 252/7/5 255/7/5 239/7/5
f 242/7/5 2214/7/5 258/7/5 243/7/5
f 2215/7/5 2216/7/5 2217/7/5 2218/7/5
f 2219/7/5 2220/7/5 2221/7/5 2222/7/5
f 2223/7/5 2224/7/5 2225/7/5 2226/7/5
f 2227/7/5 2228/7/5 2229/7/5 2230/7/5
f 2231/7/5 2232/7/5 2233/7/5 2234/7/5
f 2235/7/5 255/7/5 2214/7/5 2236/7/5
f 239/3/5 2215/3/5 2218/3/5 242/3/5
f 2220/3/5 2223/3/5 2226/3/5 2221/3/5
f 2228/3/5 2231/3/5 2234/3/5 2229/3/5
f 2216/4/5 2219/4/5 2222/4/5 2217/4/5
f 2224/4/5 2227/4/5 2230/4/5 2225/4/5
f 2232/4/5 2235/4/5 2236/4/5 2233/4/5
f 218/11/5 1452/11/5 2237/11/5 219/11/5
f 222/11/5 2238/11/5 599/11/5 223/11/5
f 2239/11/5 2240/11/5 2241/11/5 2242/11/5
f 2243/11/5 2244/11/5 2245/11/5 2246/11/5
f 1452/7/5 241/7/5 244/7/5 599/7/5
f 253/7/5 1763/7/5 2247/7/5 254/7/5
f 260/7/5 2248/7/5 909/7/5 261/7/5
f 1765/7/5 272/7/5 2249/7/5 2250/7/5
f 2251/7/5 2252/7/5 275/7/5 912/7/5
f 2253/7/5 2254/7/5 2255/7/5 2256/7/5
f 2257/7/5 2249/7/5 2252/7/5 2258/7/5
f 1763/9/5 1765/9/5 912/9/5 909/9/5
f 219/4/5 2239/4/5 2242/4/5 222/4/5
f 2244/4/5 2237/4/5 2238/4/5 2245/4/5
f 2250/4/5 2253/4/5 2256/4/5 2251/4/5
f 2240/3/5 2243/3/5 2246/3/5 2241/3/5
f 254/3/5 2247/3/5 2248/3/5 260/3/5
f 2254/3/5 2257/3/5 2258/3/5 2255/3/5
f 198/5/5 2213/5/5 2259/5/5 199/5/5
f 202/5/5 2260/5/5 1359/5/5 203/5/5
f 2213/9/5 1724/9/5 2261/9/5 2259/9/5
f 2259/9/5 2262/9/5 2263/9/5 1359/9/5
f 2264/9/5 2265/9/5 871/9/5 2263/9/5
f 1769/9/5 292/9/5 2266/9/5 2267/9/5
f 2267/9/5 2268/9/5 2269/9/5 915/9/5
f 2270/9/5 2271/9/5 295/9/5 2269/9/5
f 2272/9/5 2266/9/5 2271/9/5 2273/9/5
f 1724/7/5 221/7/5 224/7/5 871/7/5
f 276/7/5 1769/7/5 2267/7/5 277/7/5
f 280/7/5 2274/7/5 915/7/5 281/7/5
f 199/4/5 2259/4/5 2260/4/5 202/4/5
f 277/4/5 2267/4/5 2274/4/5 280/4/5
f 2262/3/5 2261/3/5 2265/3/5 2264/3/5
f 2268/3/5 2272/3/5 2273/3/5 2270/3/5
f 178/7/5 207/7/5 2275/7/5 179/7/5
f 182/7/5 2276/7/5 206/7/5 183/7/5
f 2277/7/5 2275/7/5 2276/7/5 2278/7/5
f 296/7/5 1782/7/5 2279/7/5 297/7/5
f 300/7/5 2280/7/5 928/7/5 301/7/5
f 1782/9/5 312/9/5 315/9/5 928/9/5
f 179/3/5 2277/3/5 2278/3/5 182/3/5
f 297/4/5 2279/4/5 2280/4/5 300/4/5
f 158/7/5 1710/7/5 2281/7/5 159/7/5
f 162/7/5 2282/7/5 856/7/5 163/7/5
f 316/7/5 332/7/5 2283/7/5 317/7/5
f 320/7/5 2284/7/5 335/7/5 321/7/5
f 2285/7/5 2283/7/5 2284/7/5 2286/7/5
f 1710/9/5 181/9/5 184/9/5 856/9/5
f 159/4/5 2281/4/5 2282/4/5 162/4/5
f 317/3/5 2285/3/5 2286/3/5 320/3/5
f 138/7/5 1396/7/5 2287/7/5 139/7/5
f 142/7/5 2288/7/5 544/7/5 143/7/5
f 336/7/5 1678/7/5 2289/7/5 337/7/5
f 340/7/5 2290/7/5 825/7/5 341/7/5
f 1396/11/5 177/11/5 176/11/5 544/11/5
f 1678/11/5 352/11/5 358/11/5 825/11/5
f 139/3/5 2287/3/5 2288/3/5 142/3/5
f 337/4/5 2289/4/5 2290/4/5 340/4/5
f 118/7/5 1388/7/5 2291/7/5 119/7/5
f 122/7/5 2292/7/5 536/7/5 123/7/5
f 353/7/5 372/7/5 2293/7/5 354/7/5
f 360/7/5 2294/7/5 375/7/5 361/7/5
f 2295/7/5 2293/7/5 2294/7/5 2296/7/5
f 1388/11/5 155/11/5 154/11/5 536/11/5
f 119/4/5 2291/4/5 2292/4/5 122/4/5
f 354/3/5 2295/3/5 2296/3/5 360/3/5
f 98/7/5 137/7/5 2297/7/5 99/7/5
f 102/7/5 2298/7/5 136/7/5 103/7/5
f 2299/7/5 2297/7/5 2298/7/5 2300/7/5
f 376/7/5 392/7/5 2301/7/5 377/7/5
f 380/7/5 2302/7/5 395/7/5 381/7/5
f 2303/7/5 2301/7/5 2302/7/5 2304/7/5
f 99/3/5 2299/3/5 2300/3/5 102/3/5
f 377/4/5 2303/4/5 2304/4/5 380/4/5
f 70/7/5 117/7/5 2305/7/5 71/7/5
f 74/7/5 2306/7/5 116/7/5 75/7/5
f 2307/7/5 2305/7/5 2306/7/5 2308/7/5
f 400/7/5 412/7/5 2309/7/5 401/7/5
f 404/7/5 2310/7/5 415/7/5 405/7/5
f 2311/7/5 2309/7/5 2310/7/5 2312/7/5
f 71/4/5 2307/4/5 2308/4/5 74/4/5
f 401/3/5 2311/3/5 2312/3/5 404/3/5
f 34/7/5 1367/7/5 2313/7/5 35/7/5
f 38/7/5 2314/7/5 515/7/5 39/7/5
f 420/7/5 1690/7/5 2315/7/5 421/7/5
f 424/7/5 2316/7/5 837/7/5 425/7/5
f 1367/11/5 95/11/5 94/11/5 515/11/5
f 1690/11/5 440/11/5 446/11/5 837/11/5
f 35/4/5 2313/4/5 2314/4/5 38/4/5
f 421/4/5 2315/4/5 2316/4/5 424/4/5
f 1/11/5 1361/11/5 2317/11/5 2/11/5
f 5/11/5 2318/11/5 508/11/5 6/11/5
f 1361/7/5 69/7/5 68/7/5 508/7/5
f 441/7/5 478/7/5 481/7/5 442/7/5
f 448/7/5 2319/7/5 484/7/5 449/7/5
f 2320/7/5 481/7/5 2319/7/5 2321/7/5
f 2/3/5 2317/3/5 2318/3/5 5/3/5
f 442/3/5 2320/3/5 2321/3/5 448/3/5
f 18/7/6 22/7/6 55/7/6 50/7/6
f 472/7/6 474/7/6 480/7/6 479/7/6
f 474/7/6 476/7/6 2322/7/6 2323/7/6
f 2324/7/6 2322/7/6 487/7/6 486/7/6
f 2323/3/6 2324/3/6 486/3/6 480/3/6
f 53/7/6 56/7/6 519/7/6 1370/7/6
f 416/7/6 2325/7/6 469/7/6 473/7/6
f 2325/7/6 419/7/6 2326/7/6 2327/7/6
f 2328/7/6 2326/7/6 477/7/6 470/7/6
f 1370/11/6 2329/11/6 83/11/6 82/11/6
f 2330/11/6 519/11/6 87/11/6 86/11/6
f 2329/4/6 2330/4/6 86/4/6 83/4/6
f 2327/4/6 2328/4/6 470/4/6 469/4/6
f 97/11/6 2331/11/6 107/11/6 106/11/6
f 2331/11/6 96/11/6 2332/11/6 2333/11/6
f 2334/11/6 2332/11/6 111/11/6 110/11/6
f 1689/11/6 2335/11/6 431/11/6 430/11/6
f 2336/11/6 836/11/6 435/11/6 434/11/6
f 396/7/6 399/7/6 836/7/6 1689/7/6
f 2333/4/6 2334/4/6 110/4/6 107/4/6
f 2335/4/6 2336/4/6 434/4/6 431/4/6
f 1384/11/6 533/11/6 131/11/6 126/11/6
f 382/11/6 385/11/6 407/11/6 406/11/6
f 385/11/6 388/11/6 2337/11/6 2338/11/6
f 2339/11/6 2337/11/6 411/11/6 410/11/6
f 2338/3/6 2339/3/6 410/3/6 407/3/6
f 109/7/6 112/7/6 533/7/6 1384/7/6
f 129/7/6 132/7/6 540/7/6 1391/7/6
f 1391/11/6 2340/11/6 147/11/6 146/11/6
f 2341/11/6 540/11/6 151/11/6 150/11/6
f 362/11/6 365/11/6 384/11/6 383/11/6
f 365/11/6 368/11/6 2342/11/6 2343/11/6
f 2344/11/6 2342/11/6 391/11/6 390/11/6
f 2340/4/6 2341/4/6 150/4/6 147/4/6
f 2343/4/6 2344/4/6 390/4/6 384/4/6
f 157/11/6 156/11/6 171/11/6 166/11/6
f 342/11/6 345/11/6 364/11/6 363/11/6
f 345/11/6 348/11/6 2345/11/6 2346/11/6
f 2347/11/6 2345/11/6 371/11/6 370/11/6
f 2346/3/6 2347/3/6 370/3/6 364/3/6
f 169/7/6 172/7/6 558/7/6 1409/7/6
f 1409/11/6 2348/11/6 189/11/6 188/11/6
f 2349/11/6 558/11/6 193/11/6 192/11/6
f 322/11/6 325/11/6 344/11/6 343/11/6
f 325/11/6 328/11/6 2350/11/6 2351/11/6
f 2352/11/6 2350/11/6 351/11/6 350/11/6
f 2348/4/6 2349/4/6 192/4/6 189/4/6
f 2351/4/6 2352/4/6 350/4/6 344/4/6
f 191/7/6 194/7/6 213/7/6 208/7/6
f 302/11/6 305/11/6 324/11/6 323/11/6
f 305/11/6 308/11/6 2353/11/6 2354/11/6
f 2355/11/6 2353/11/6 331/11/6 330/11/6
f 2354/3/6 2355/3/6 330/3/6 324/3/6
f 211/7/6 214/7/6 587/7/6 1438/7/6
f 1438/11/6 2356/11/6 232/11/6 236/11/6
f 2357/11/6 587/11/6 237/11/6 233/11/6
f 2358/11/6 2359/11/6 2360/11/6 2361/11/6
f 282/11/6 285/11/6 304/11/6 303/11/6
f 285/11/6 288/11/6 2362/11/6 2363/11/6
f 2364/11/6 2362/11/6 311/11/6 310/11/6
f 2365/11/6 2366/11/6 2367/11/6 2368/11/6
f 2356/3/6 2357/3/6 2359/3/6 2358/3/6
f 2363/3/6 2364/3/6 2366/3/6 2365/3/6
f 2361/4/6 2360/4/6 233/4/6 232/4/6
f 2368/4/6 2367/4/6 310/4/6 304/4/6
f 231/11/6 2369/11/6 2370/11/6 248/11/6
f 2369/11/6 230/11/6 2371/11/6 2372/11/6
f 2373/11/6 2371/11/6 249/11/6 2374/11/6
f 2375/11/6 2376/11/6 2377/11/6 2378/11/6
f 2379/11/6 2380/11/6 2381/11/6 2382/11/6
f 266/11/6 268/11/6 284/11/6 283/11/6
f 268/11/6 270/11/6 2383/11/6 2384/11/6
f 2385/11/6 2383/11/6 291/11/6 290/11/6
f 2386/11/6 2387/11/6 2388/11/6 2389/11/6
f 2390/11/6 2391/11/6 2392/11/6 2393/11/6
f 2372/3/6 2373/3/6 2376/3/6 2375/3/6
f 2382/3/6 2381/3/6 2374/3/6 2370/3/6
f 2389/3/6 2388/3/6 2391/3/6 2390/3/6
f 2378/4/6 2377/4/6 2380/4/6 2379/4/6
f 2384/4/6 2385/4/6 2387/4/6 2386/4/6
f 2393/4/6 2392/4/6 290/4/6 284/4/6
f 251/11/6 2394/11/6 263/11/6 267/11/6
f 2394/11/6 250/11/6 2395/11/6 2396/11/6
f 2397/11/6 2395/11/6 271/11/6 264/11/6
f 2398/11/6 2399/11/6 2400/11/6 2401/11/6
f 2402/11/6 2403/11/6 2404/11/6 2405/11/6
f 2406/11/6 2407/11/6 2408/11/6 2409/11/6
f 2410/11/6 2411/11/6 2412/11/6 2413/11/6
f 2414/11/6 2415/11/6 2416/11/6 2417/11/6
f 2396/4/6 2397/4/6 2399/4/6 2398/4/6
f 2405/4/6 2404/4/6 2407/4/6 2406/4/6
f 2413/4/6 2412/4/6 2415/4/6 2414/4/6
f 2401/3/6 2400/3/6 2403/3/6 2402/3/6
f 2409/3/6 2408/3/6 2411/3/6 2410/3/6
f 2417/3/6 2416/3/6 264/3/6 263/3/6
